<svg width="188" height="135" viewBox="0 0 188 135" fill="none" xmlns="http://www.w3.org/2000/svg">
<path d="M26.1903 126.16L23.9875 129.499L23.9935 129.503L23.9995 129.507L26.1903 126.16ZM7.39666 103.092L3.73203 104.696L3.7345 104.701L7.39666 103.092ZM0.85973 66.8249L-3.14025 66.8131L0.85973 66.8249ZM7.45952 30.8718L3.8049 29.2458L3.80171 29.253L7.45952 30.8718ZM26.1903 8.30682L28.3401 11.68L28.3446 11.6772L26.1903 8.30682ZM84.2685 8.30682L82.1142 11.6772L82.1243 11.6836L82.1345 11.69L84.2685 8.30682ZM103.125 30.8718L106.78 29.2458V29.2458L103.125 30.8718ZM109.662 66.8249L105.662 66.813V66.8249H109.662ZM103.062 103.155L99.3975 101.552L103.062 103.155ZM84.2685 126.223L86.4551 129.572L86.4593 129.57L84.2685 126.223ZM71.5089 98.441L74.9277 100.518L74.9333 100.508L71.5089 98.441ZM77.6687 66.8249H73.6687L73.6687 66.8367L77.6687 66.8249ZM74.8402 43.82L71.0199 45.0056L71.0223 45.0131L74.8402 43.82ZM66.9833 30.2432L69.6385 27.2515V27.2515L66.9833 30.2432ZM39.0756 35.9002L42.4867 37.9895L42.4924 37.98L39.0756 35.9002ZM32.853 66.8249L36.853 66.8427L36.853 66.837L32.853 66.8249ZM35.5558 90.2699L31.7216 91.4098L31.7251 91.4216L31.7287 91.4335L35.5558 90.2699ZM43.4755 104.161L40.7976 107.132L40.8078 107.141L40.818 107.151L43.4755 104.161ZM55.2294 130.143C44.6533 130.143 35.7626 127.646 28.3812 122.813L23.9995 129.507C32.8766 135.318 43.3452 138.143 55.2294 138.143V130.143ZM28.3932 122.821C20.9839 117.933 15.1883 110.883 11.0588 101.483L3.7345 104.701C8.40475 115.332 15.1383 123.66 23.9875 129.499L28.3932 122.821ZM11.0613 101.489C6.93827 92.065 4.81901 80.5553 4.85971 66.8368L-3.14025 66.8131C-3.18335 81.3375 -0.944658 94.006 3.73203 104.696L11.0613 101.489ZM4.85971 66.8368C4.90046 53.1045 7.04151 41.7004 11.1173 32.4906L3.80171 29.253C-0.838382 39.7378 -3.09719 52.3024 -3.14025 66.8131L4.85971 66.8368ZM11.1141 32.4978C15.2372 23.2307 20.9979 16.3593 28.3401 11.68L24.0406 4.93361C15.2081 10.5626 8.48157 18.7345 3.80491 29.2458L11.1141 32.4978ZM28.3446 11.6772C35.7308 6.95606 44.635 4.51278 55.2294 4.51278V-3.48722C43.3635 -3.48722 32.9084 -0.734474 24.0361 4.93647L28.3446 11.6772ZM55.2294 4.51278C65.8238 4.51278 74.728 6.95606 82.1142 11.6772L86.4227 4.93647C77.5504 -0.734478 67.0953 -3.48722 55.2294 -3.48722V4.51278ZM82.1345 11.69C89.5571 16.372 95.3522 23.2417 99.4704 32.4978L106.78 29.2458C102.098 18.7235 95.3222 10.5499 86.4025 4.92363L82.1345 11.69ZM99.4704 32.4978C103.583 41.7413 105.703 53.1352 105.662 66.813L113.662 66.8368C113.705 52.3556 111.467 39.7807 106.78 29.2458L99.4704 32.4978ZM105.662 66.8249C105.662 80.59 103.522 92.1246 99.3975 101.552L106.727 104.758C111.402 94.0722 113.662 81.3866 113.662 66.8249H105.662ZM99.3975 101.552C95.2674 110.992 89.4748 118.034 82.0776 122.876L86.4593 129.57C95.3206 123.769 102.057 115.432 106.727 104.758L99.3975 101.552ZM82.0818 122.874C74.7475 127.662 65.8574 130.143 55.2294 130.143V138.143C67.1455 138.143 77.6148 135.344 86.4551 129.572L82.0818 122.874ZM55.2294 112.686C63.6193 112.686 70.217 108.273 74.9277 100.518L68.0901 96.3646C64.5039 102.269 60.2486 104.686 55.2294 104.686V112.686ZM74.9333 100.508C79.6516 92.6921 81.7113 81.2617 81.6687 66.8131L73.6687 66.8367C73.7099 80.7986 71.663 90.4457 68.0844 96.3739L74.9333 100.508ZM81.6687 66.8249C81.6687 57.2897 80.7068 49.1827 78.6581 42.6269L71.0223 45.0131C72.7449 50.5254 73.6687 57.755 73.6687 66.8249H81.6687ZM78.6605 42.6344C76.6446 36.1388 73.7193 30.8733 69.6385 27.2515L64.3282 33.2349C66.9519 35.5635 69.2645 39.3491 71.0199 45.0056L78.6605 42.6344ZM69.6385 27.2515C65.554 23.6266 60.6913 21.7805 55.2294 21.7805V29.7805C58.7349 29.7805 61.7081 30.9096 64.3282 33.2349L69.6385 27.2515ZM55.2294 21.7805C46.8918 21.7805 40.3333 26.141 35.6588 33.8204L42.4924 37.98C46.0311 32.1665 50.2418 29.7805 55.2294 29.7805V21.7805ZM35.6646 33.811C30.9816 41.4567 28.8956 52.6573 28.853 66.8129L36.853 66.837C36.8941 53.1687 38.9566 43.7528 42.4867 37.9895L35.6646 33.811ZM28.853 66.8071C28.8101 76.4654 29.7279 84.7035 31.7216 91.4098L39.3899 89.13C37.6961 83.4328 36.8121 76.041 36.8529 66.8427L28.853 66.8071ZM31.7287 91.4335C33.7419 98.0546 36.6827 103.424 40.7976 107.132L46.1534 101.19C43.4799 98.7801 41.1409 94.8886 39.3828 89.1063L31.7287 91.4335ZM40.818 107.151C44.9264 110.802 49.7841 112.686 55.2294 112.686V104.686C51.7912 104.686 48.813 103.553 46.1329 101.171L40.818 107.151ZM187.005 2.27272H191.005V-1.72728H187.005V2.27272ZM187.005 131V135H191.005V131H187.005ZM155.955 131H151.955V135H155.955V131ZM155.955 31.3118H159.955V27.3118H155.955V31.3118ZM155.2 31.3118V27.3118H154.075L153.114 27.899L155.2 31.3118ZM126.413 48.9112H122.413V56.0449L128.499 52.324L126.413 48.9112ZM126.413 22.0092L124.301 18.6123L122.413 19.7862V22.0092H126.413ZM158.155 2.27272V-1.72728H157.012L156.043 -1.12417L158.155 2.27272ZM183.005 2.27272V131H191.005V2.27272H183.005ZM187.005 127H155.955V135H187.005V127ZM159.955 131V31.3118H151.955V131H159.955ZM155.955 27.3118H155.2V35.3118H155.955V27.3118ZM153.114 27.899L124.326 45.4985L128.499 52.324L157.287 34.7245L153.114 27.899ZM130.413 48.9112V22.0092H122.413V48.9112H130.413ZM128.525 25.4061L160.267 5.66962L156.043 -1.12417L124.301 18.6123L128.525 25.4061ZM158.155 6.27272H187.005V-1.72728H158.155V6.27272Z" fill="#F0F2FF"/>
</svg>
