<svg width="223" height="135" viewBox="0 0 223 135" fill="none" xmlns="http://www.w3.org/2000/svg">
<path d="M54.7294 134.143C43.4993 134.143 33.8196 131.482 25.6903 126.16C17.5611 120.797 11.2965 113.107 6.89666 103.092C2.4968 93.0355 0.317827 80.9464 0.35973 66.8249C0.401634 52.7035 2.60156 40.7191 6.95952 30.8718C11.3594 20.9826 17.603 13.4609 25.6903 8.30682C33.8196 3.11079 43.4993 0.512779 54.7294 0.512779C65.9595 0.512779 75.6392 3.11079 83.7685 8.30682C91.9396 13.4609 98.2251 20.9826 102.625 30.8718C107.025 40.761 109.204 52.7454 109.162 66.8249C109.162 80.9883 106.962 93.0984 102.562 103.155C98.1623 113.212 91.8977 120.901 83.7685 126.223C75.6811 131.503 66.0014 134.143 54.7294 134.143ZM54.7294 108.686C61.4339 108.686 66.8604 105.271 71.0089 98.441C75.1573 91.5689 77.2106 81.0302 77.1687 66.8249C77.1687 57.5224 76.2259 49.854 74.3402 43.82C72.4545 37.744 69.8356 33.2184 66.4833 30.2432C63.131 27.2681 59.2131 25.7805 54.7294 25.7805C48.0668 25.7805 42.6822 29.1538 38.5756 35.9002C34.4691 42.6048 32.3949 52.913 32.353 66.8249C32.3111 76.2532 33.212 84.0682 35.0558 90.2699C36.9414 96.4716 39.5813 101.102 42.9755 104.161C46.3697 107.178 50.2876 108.686 54.7294 108.686ZM126.981 131V108.624L173.934 67.5163C177.454 64.3317 180.45 61.4194 182.922 58.7795C185.395 56.0977 187.28 53.4158 188.579 50.734C189.878 48.0103 190.528 45.0561 190.528 41.8715C190.528 38.3097 189.753 35.2717 188.202 32.7575C186.652 30.2013 184.515 28.2319 181.791 26.8491C179.067 25.4663 175.945 24.7749 172.426 24.7749C168.864 24.7749 165.742 25.5082 163.06 26.9748C160.378 28.3995 158.283 30.4737 156.775 33.1974C155.308 35.9212 154.575 39.2315 154.575 43.1285H125.096C125.096 34.3707 127.065 26.8072 131.004 20.4379C134.943 14.0685 140.474 9.16583 147.598 5.72975C154.763 2.25177 163.081 0.512779 172.551 0.512779C182.315 0.512779 190.8 2.14701 198.008 5.41548C205.215 8.68395 210.788 13.2514 214.727 19.1179C218.708 24.9425 220.698 31.7099 220.698 39.4201C220.698 44.3228 219.714 49.1836 217.744 54.0025C215.775 58.8214 212.234 64.1431 207.122 69.9677C202.051 75.7923 194.844 82.7692 185.499 90.8984L170.1 105.104V105.921H222.27V131H126.981Z" fill="#F0F2FF"/>
</svg>
