<svg width="228" height="135" viewBox="0 0 228 135" fill="none" xmlns="http://www.w3.org/2000/svg">
<path d="M54.7294 134.143C43.4993 134.143 33.8196 131.482 25.6903 126.16C17.5611 120.797 11.2965 113.107 6.89666 103.092C2.4968 93.0355 0.317827 80.9464 0.35973 66.8249C0.401634 52.7035 2.60156 40.7191 6.95952 30.8718C11.3594 20.9826 17.603 13.4609 25.6903 8.30682C33.8196 3.11079 43.4993 0.512779 54.7294 0.512779C65.9595 0.512779 75.6392 3.11079 83.7685 8.30682C91.9396 13.4609 98.2251 20.9826 102.625 30.8718C107.025 40.761 109.204 52.7454 109.162 66.8249C109.162 80.9883 106.962 93.0984 102.562 103.155C98.1623 113.212 91.8977 120.901 83.7685 126.223C75.6811 131.503 66.0014 134.143 54.7294 134.143ZM54.7294 108.686C61.4339 108.686 66.8604 105.271 71.0089 98.441C75.1573 91.5689 77.2106 81.0302 77.1687 66.8249C77.1687 57.5224 76.2259 49.854 74.3402 43.82C72.4545 37.744 69.8356 33.2184 66.4833 30.2432C63.131 27.2681 59.2131 25.7805 54.7294 25.7805C48.0668 25.7805 42.6822 29.1538 38.5756 35.9002C34.4691 42.6048 32.3949 52.913 32.353 66.8249C32.3111 76.2532 33.212 84.0682 35.0558 90.2699C36.9414 96.4716 39.5813 101.102 42.9755 104.161C46.3697 107.178 50.2876 108.686 54.7294 108.686ZM175.945 132.76C166.14 132.76 157.445 131.084 149.861 127.732C142.318 124.337 136.368 119.665 132.01 113.715C127.652 107.765 125.431 100.913 125.347 93.1612H156.649C156.775 95.9687 157.676 98.462 159.352 100.641C161.028 102.778 163.312 104.454 166.203 105.669C169.094 106.885 172.384 107.492 176.071 107.492C179.759 107.492 183.006 106.843 185.814 105.544C188.663 104.203 190.884 102.38 192.476 100.075C194.069 97.7287 194.844 95.0469 194.802 92.0298C194.844 89.0128 193.985 86.331 192.225 83.9844C190.465 81.6378 187.972 79.815 184.745 78.516C181.561 77.217 177.789 76.5675 173.431 76.5675H160.923V54.4425H173.431C177.244 54.4425 180.597 53.8139 183.488 52.5568C186.421 51.2997 188.705 49.5398 190.339 47.277C191.974 44.9723 192.77 42.3324 192.728 39.3572C192.77 36.4659 192.078 33.9307 190.654 31.7518C189.271 29.5309 187.322 27.8128 184.808 26.5977C182.336 25.3825 179.465 24.7749 176.197 24.7749C172.761 24.7749 169.639 25.3825 166.832 26.5977C164.066 27.8128 161.866 29.5309 160.232 31.7518C158.597 33.9727 157.738 36.5497 157.655 39.4829H127.924C128.008 31.8146 130.145 25.0682 134.335 19.2436C138.526 13.3771 144.225 8.7887 151.432 5.47834C158.681 2.16797 166.936 0.512779 176.197 0.512779C185.416 0.512779 193.524 2.12606 200.522 5.35262C207.52 8.57919 212.967 12.979 216.864 18.5522C220.761 24.0834 222.71 30.348 222.71 37.3459C222.752 44.5952 220.384 50.5664 215.607 55.2596C210.872 59.9528 204.775 62.8441 197.316 63.9336V64.9393C207.289 66.1126 214.811 69.3391 219.881 74.619C224.993 79.8988 227.529 86.4986 227.487 94.4183C227.487 101.877 225.287 108.498 220.887 114.281C216.529 120.021 210.453 124.547 202.659 127.857C194.907 131.126 186.002 132.76 175.945 132.76Z" fill="#F0F2FF"/>
</svg>
