<svg width="250" height="164" viewBox="0 0 250 164" fill="none" xmlns="http://www.w3.org/2000/svg">
<path d="M112.238 116.123L116.158 116.918L116.16 116.913L112.238 116.123ZM102.482 141.597L99.1121 139.442L99.1042 139.455L99.0963 139.467L102.482 141.597ZM25.5195 153.521L23.0807 156.691L23.0892 156.698L23.0978 156.704L25.5195 153.521ZM6.7666 125.662L2.96513 126.907L2.96959 126.92L2.97415 126.934L6.7666 125.662ZM6.22461 38.0762L2.39518 36.9205L2.39298 36.9278L2.3908 36.9352L6.22461 38.0762ZM90.4502 10.001L87.9982 13.1613L88.0133 13.173L88.0285 13.1846L90.4502 10.001ZM109.203 37.9678L105.406 39.2259L105.408 39.2327L109.203 37.9678ZM44.4893 107.993L40.5103 108.403L40.5124 108.424L40.5147 108.444L44.4893 107.993ZM48.8252 123.819L45.3829 125.857L45.4075 125.898L45.4332 125.939L48.8252 123.819ZM67.1445 123.819L70.5682 125.888L70.5776 125.872L70.5868 125.857L67.1445 123.819ZM71.4805 108.102L75.4545 108.557L75.455 108.552L71.4805 108.102ZM71.4805 55.7451L67.5059 56.1958L71.4805 55.7451ZM67.1445 39.9189L63.6844 41.9258L63.6932 41.9411L63.7022 41.9562L67.1445 39.9189ZM48.8252 39.9189L45.3952 37.861L45.389 37.8713L45.3829 37.8817L48.8252 39.9189ZM44.4893 55.7451L40.5147 55.2944L40.5124 55.3147L40.5103 55.3349L44.4893 55.7451ZM111.273 81.9775C111.273 94.4917 110.277 105.602 108.317 115.333L116.16 116.913C118.246 106.555 119.273 94.9009 119.273 81.9775H111.273ZM108.318 115.328C106.372 124.922 103.275 132.929 99.1121 139.442L105.853 143.751C110.651 136.245 114.058 127.27 116.158 116.918L108.318 115.328ZM99.0963 139.467C95.0699 145.87 89.7602 150.715 83.1189 154.069L86.7249 161.21C94.6812 157.193 101.079 151.343 105.869 143.726L99.0963 139.467ZM83.1189 154.069C76.5209 157.401 68.2167 159.168 58.0391 159.168V167.168C69.1076 167.168 78.7252 165.25 86.7249 161.21L83.1189 154.069ZM58.0391 159.168C45.4711 159.168 35.5444 156.121 27.9412 150.337L23.0978 156.704C32.4048 163.784 44.1578 167.168 58.0391 167.168V159.168ZM27.9584 150.35C20.2465 144.418 14.403 135.854 10.5591 124.39L2.97415 126.934C7.22395 139.607 13.8824 149.615 23.0807 156.691L27.9584 150.35ZM10.5681 124.418C6.7602 112.786 4.80469 98.6676 4.80469 81.9775H-3.19531C-3.19531 99.2523 -1.17621 114.257 2.96513 126.907L10.5681 124.418ZM4.80469 81.9775C4.80469 65.1107 6.58635 50.8833 10.0584 39.2172L2.3908 36.9352C-1.3637 49.5503 -3.19531 64.5905 -3.19531 81.9775H4.80469ZM10.054 39.2318C13.5493 27.6496 19.1761 19.0602 26.7791 13.1613L21.8752 6.84064C12.7125 13.9496 6.27106 24.0769 2.39518 36.9205L10.054 39.2318ZM26.7791 13.1613C34.2608 7.35654 44.5442 4.24512 58.0391 4.24512V-3.75488C43.3503 -3.75488 31.1591 -0.362396 21.8752 6.84064L26.7791 13.1613ZM58.0391 4.24512C70.599 4.24512 80.4749 7.32428 87.9982 13.1613L92.9022 6.84064C83.6599 -0.330139 71.9283 -3.75488 58.0391 -3.75488V4.24512ZM88.0285 13.1846C95.7164 19.0327 101.559 27.6148 105.406 39.2259L113 36.7096C108.754 23.895 102.094 13.8326 92.8719 6.81738L88.0285 13.1846ZM105.408 39.2327C109.282 50.8524 111.273 65.0702 111.273 81.9775H119.273C119.273 64.4865 117.218 49.3644 112.998 36.7029L105.408 39.2327ZM39.4053 81.9775C39.4053 92.3917 39.7688 101.211 40.5103 108.403L48.4682 107.583C47.7644 100.756 47.4053 92.2314 47.4053 81.9775H39.4053ZM40.5147 108.444C41.3341 115.669 42.8643 121.601 45.3829 125.857L52.2675 121.782C50.5947 118.956 49.2342 114.336 48.4638 107.542L40.5147 108.444ZM45.4332 125.939C48.3062 130.536 52.6371 133.022 58.0391 133.022V125.022C55.4918 125.022 53.6801 124.04 52.2172 121.699L45.4332 125.939ZM58.0391 133.022C63.4478 133.022 67.7656 130.527 70.5682 125.888L63.7209 121.751C62.332 124.05 60.5795 125.022 58.0391 125.022V133.022ZM70.5868 125.857C73.1022 121.607 74.6341 115.717 75.4545 108.557L67.5065 107.646C66.737 114.362 65.3783 118.95 63.7022 121.782L70.5868 125.857ZM75.455 108.552C76.2728 101.341 76.6729 92.4709 76.6729 81.9775H68.6729C68.6729 92.2967 68.278 100.843 67.5059 107.651L75.455 108.552ZM76.6729 81.9775C76.6729 71.4131 76.2729 62.5067 75.455 55.2944L67.5059 56.1958C68.2779 63.0031 68.6729 71.5849 68.6729 81.9775H76.6729ZM75.455 55.2944C74.6356 48.0689 73.1055 42.1373 70.5868 37.8817L63.7022 41.9562C65.375 44.7827 66.7355 49.4018 67.5059 56.1958L75.455 55.2944ZM70.6047 37.9121C67.8381 33.1422 63.5268 30.499 58.0391 30.499V38.499C60.5005 38.499 62.2595 39.4692 63.6844 41.9258L70.6047 37.9121ZM58.0391 30.499C52.5595 30.499 48.2332 33.131 45.3952 37.861L52.2552 41.9769C53.7531 39.4803 55.5694 38.499 58.0391 38.499V30.499ZM45.3829 37.8817C42.8643 42.1373 41.3341 48.0689 40.5147 55.2944L48.4638 56.1958C49.2342 49.4018 50.5947 44.7827 52.2675 41.9562L45.3829 37.8817ZM40.5103 55.3349C39.7687 62.5292 39.4053 71.421 39.4053 81.9775H47.4053C47.4053 71.577 47.7645 62.9806 48.4682 56.1553L40.5103 55.3349ZM249.796 130.323V134.323H253.796V130.323H249.796ZM232.344 130.323V126.323H228.344V130.323H232.344ZM232.344 161V165H236.344V161H232.344ZM190.068 161H186.068V165H190.068V161ZM190.068 130.323H194.068V126.323H190.068V130.323ZM126.872 130.323H122.872V134.323H126.872V130.323ZM126.872 98.8877L123.57 96.6296L122.872 97.6507V98.8877H126.872ZM192.778 2.52148V-1.47852H190.668L189.477 0.263412L192.778 2.52148ZM232.344 2.52148H236.344V-1.47852H232.344V2.52148ZM232.344 98.3457H228.344V102.346H232.344V98.3457ZM249.796 98.3457H253.796V94.3457H249.796V98.3457ZM190.068 98.3457V102.346H194.068V98.3457H190.068ZM190.394 66.043L186.4 65.8211L186.397 65.8749L186.395 65.9287L190.394 66.043ZM190.719 59.5391L186.731 59.2201L186.725 59.2962L186.722 59.3725L190.719 59.5391ZM191.044 56.6123L194.622 58.4012L197.516 52.6123H191.044V56.6123ZM189.852 56.6123V52.6123H187.199L186.167 55.0564L189.852 56.6123ZM186.058 64.7422L189.56 66.6745L189.574 66.6496L189.587 66.6245L186.058 64.7422ZM181.505 72.2217L184.825 74.4532L184.842 74.4275L184.859 74.4016L181.505 72.2217ZM163.944 98.3457L160.625 96.1142L156.436 102.346H163.944V98.3457ZM249.796 126.323H232.344V134.323H249.796V126.323ZM228.344 130.323V161H236.344V130.323H228.344ZM232.344 157H190.068V165H232.344V157ZM194.068 161V130.323H186.068V161H194.068ZM190.068 126.323H126.872V134.323H190.068V126.323ZM130.872 130.323V98.8877H122.872V130.323H130.872ZM130.174 101.146L196.08 4.77956L189.477 0.263412L123.57 96.6296L130.174 101.146ZM192.778 6.52148H232.344V-1.47852H192.778V6.52148ZM228.344 2.52148V98.3457H236.344V2.52148H228.344ZM232.344 102.346H249.796V94.3457H232.344V102.346ZM245.796 98.3457V130.323H253.796V98.3457H245.796ZM194.068 98.3457V79.918H186.068V98.3457H194.068ZM194.068 79.918C194.068 78.3081 194.103 76.2537 194.175 73.7451L186.178 73.5166C186.106 76.0666 186.068 78.2036 186.068 79.918H194.068ZM194.175 73.7451C194.175 73.7402 194.175 73.7352 194.176 73.7303C194.176 73.7253 194.176 73.7204 194.176 73.7155C194.176 73.7105 194.176 73.7056 194.176 73.7006C194.177 73.6957 194.177 73.6908 194.177 73.6858C194.177 73.6809 194.177 73.6759 194.177 73.671C194.177 73.6661 194.178 73.6611 194.178 73.6562C194.178 73.6512 194.178 73.6463 194.178 73.6414C194.178 73.6364 194.178 73.6315 194.179 73.6265C194.179 73.6216 194.179 73.6167 194.179 73.6117C194.179 73.6068 194.179 73.6018 194.179 73.5969C194.18 73.592 194.18 73.587 194.18 73.5821C194.18 73.5771 194.18 73.5722 194.18 73.5673C194.18 73.5623 194.18 73.5574 194.181 73.5524C194.181 73.5475 194.181 73.5426 194.181 73.5376C194.181 73.5327 194.181 73.5277 194.181 73.5228C194.182 73.5179 194.182 73.5129 194.182 73.508C194.182 73.503 194.182 73.4981 194.182 73.4932C194.182 73.4882 194.183 73.4833 194.183 73.4783C194.183 73.4734 194.183 73.4685 194.183 73.4635C194.183 73.4586 194.183 73.4536 194.184 73.4487C194.184 73.4438 194.184 73.4388 194.184 73.4339C194.184 73.4289 194.184 73.424 194.184 73.4191C194.185 73.4141 194.185 73.4092 194.185 73.4042C194.185 73.3993 194.185 73.3944 194.185 73.3894C194.185 73.3845 194.186 73.3795 194.186 73.3746C194.186 73.3697 194.186 73.3647 194.186 73.3598C194.186 73.3548 194.186 73.3499 194.187 73.345C194.187 73.34 194.187 73.3351 194.187 73.3301C194.187 73.3252 194.187 73.3203 194.187 73.3153C194.188 73.3104 194.188 73.3054 194.188 73.3005C194.188 73.2956 194.188 73.2906 194.188 73.2857C194.188 73.2807 194.189 73.2758 194.189 73.2709C194.189 73.2659 194.189 73.261 194.189 73.256C194.189 73.2511 194.189 73.2462 194.19 73.2412C194.19 73.2363 194.19 73.2313 194.19 73.2264C194.19 73.2215 194.19 73.2165 194.19 73.2116C194.191 73.2066 194.191 73.2017 194.191 73.1968C194.191 73.1918 194.191 73.1869 194.191 73.1819C194.191 73.177 194.191 73.1721 194.192 73.1671C194.192 73.1622 194.192 73.1572 194.192 73.1523C194.192 73.1474 194.192 73.1424 194.192 73.1375C194.193 73.1325 194.193 73.1276 194.193 73.1227C194.193 73.1177 194.193 73.1128 194.193 73.1078C194.193 73.1029 194.194 73.098 194.194 73.093C194.194 73.0881 194.194 73.0831 194.194 73.0782C194.194 73.0733 194.194 73.0683 194.195 73.0634C194.195 73.0584 194.195 73.0535 194.195 73.0486C194.195 73.0436 194.195 73.0387 194.195 73.0337C194.196 73.0288 194.196 73.0238 194.196 73.0189C194.196 73.014 194.196 73.009 194.196 73.0041C194.196 72.9992 194.197 72.9942 194.197 72.9893C194.197 72.9843 194.197 72.9794 194.197 72.9745C194.197 72.9695 194.197 72.9646 194.198 72.9596C194.198 72.9547 194.198 72.9498 194.198 72.9448C194.198 72.9399 194.198 72.9349 194.198 72.93C194.199 72.925 194.199 72.9201 194.199 72.9152C194.199 72.9102 194.199 72.9053 194.199 72.9004C194.199 72.8954 194.2 72.8905 194.2 72.8855C194.2 72.8806 194.2 72.8757 194.2 72.8707C194.2 72.8658 194.2 72.8608 194.201 72.8559C194.201 72.851 194.201 72.846 194.201 72.8411C194.201 72.8361 194.201 72.8312 194.201 72.8262C194.202 72.8213 194.202 72.8164 194.202 72.8114C194.202 72.8065 194.202 72.8016 194.202 72.7966C194.202 72.7917 194.203 72.7867 194.203 72.7818C194.203 72.7769 194.203 72.7719 194.203 72.767C194.203 72.762 194.203 72.7571 194.203 72.7522C194.204 72.7472 194.204 72.7423 194.204 72.7373C194.204 72.7324 194.204 72.7274 194.204 72.7225C194.204 72.7176 194.205 72.7126 194.205 72.7077C194.205 72.7028 194.205 72.6978 194.205 72.6929C194.205 72.6879 194.205 72.683 194.206 72.6781C194.206 72.6731 194.206 72.6682 194.206 72.6632C194.206 72.6583 194.206 72.6534 194.206 72.6484C194.207 72.6435 194.207 72.6385 194.207 72.6336C194.207 72.6286 194.207 72.6237 194.207 72.6188C194.207 72.6138 194.208 72.6089 194.208 72.604C194.208 72.599 194.208 72.5941 194.208 72.5891C194.208 72.5842 194.208 72.5793 194.209 72.5743C194.209 72.5694 194.209 72.5644 194.209 72.5595C194.209 72.5546 194.209 72.5496 194.209 72.5447C194.21 72.5397 194.21 72.5348 194.21 72.5298C194.21 72.5249 194.21 72.52 194.21 72.515C194.21 72.5101 194.211 72.5052 194.211 72.5002C194.211 72.4953 194.211 72.4903 194.211 72.4854C194.211 72.4805 194.211 72.4755 194.212 72.4706C194.212 72.4656 194.212 72.4607 194.212 72.4557C194.212 72.4508 194.212 72.4459 194.212 72.4409C194.213 72.436 194.213 72.431 194.213 72.4261C194.213 72.4212 194.213 72.4162 194.213 72.4113C194.213 72.4064 194.214 72.4014 194.214 72.3965C194.214 72.3915 194.214 72.3866 194.214 72.3817C194.214 72.3767 194.214 72.3718 194.215 72.3668C194.215 72.3619 194.215 72.3569 194.215 72.352C194.215 72.3471 194.215 72.3421 194.215 72.3372C194.215 72.3322 194.216 72.3273 194.216 72.3224C194.216 72.3174 194.216 72.3125 194.216 72.3076C194.216 72.3026 194.216 72.2977 194.217 72.2927C194.217 72.2878 194.217 72.2829 194.217 72.2779C194.217 72.273 194.217 72.268 194.217 72.2631C194.218 72.2581 194.218 72.2532 194.218 72.2483C194.218 72.2433 194.218 72.2384 194.218 72.2334C194.218 72.2285 194.219 72.2236 194.219 72.2186C194.219 72.2137 194.219 72.2088 194.219 72.2038C194.219 72.1989 194.219 72.1939 194.22 72.189C194.22 72.1841 194.22 72.1791 194.22 72.1742C194.22 72.1692 194.22 72.1643 194.22 72.1593C194.221 72.1544 194.221 72.1495 194.221 72.1445C194.221 72.1396 194.221 72.1346 194.221 72.1297C194.221 72.1248 194.222 72.1198 194.222 72.1149C194.222 72.11 194.222 72.105 194.222 72.1001C194.222 72.0951 194.222 72.0902 194.223 72.0853C194.223 72.0803 194.223 72.0754 194.223 72.0704C194.223 72.0655 194.223 72.0605 194.223 72.0556C194.224 72.0507 194.224 72.0457 194.224 72.0408C194.224 72.0358 194.224 72.0309 194.224 72.026C194.224 72.021 194.225 72.0161 194.225 72.0112C194.225 72.0062 194.225 72.0013 194.225 71.9963C194.225 71.9914 194.225 71.9865 194.226 71.9815C194.226 71.9766 194.226 71.9716 194.226 71.9667C194.226 71.9617 194.226 71.9568 194.226 71.9519C194.227 71.9469 194.227 71.942 194.227 71.937C194.227 71.9321 194.227 71.9272 194.227 71.9222C194.227 71.9173 194.227 71.9124 194.228 71.9074C194.228 71.9025 194.228 71.8975 194.228 71.8926C194.228 71.8876 194.228 71.8827 194.228 71.8778C194.229 71.8728 194.229 71.8679 194.229 71.8629C194.229 71.858 194.229 71.8531 194.229 71.8481C194.229 71.8432 194.23 71.8382 194.23 71.8333C194.23 71.8284 194.23 71.8234 194.23 71.8185C194.23 71.8136 194.23 71.8086 194.231 71.8037C194.231 71.7987 194.231 71.7938 194.231 71.7888C194.231 71.7839 194.231 71.779 194.231 71.774C194.232 71.7691 194.232 71.7641 194.232 71.7592C194.232 71.7543 194.232 71.7493 194.232 71.7444C194.232 71.7394 194.233 71.7345 194.233 71.7296C194.233 71.7246 194.233 71.7197 194.233 71.7148C194.233 71.7098 194.233 71.7049 194.234 71.6999C194.234 71.695 194.234 71.69 194.234 71.6851C194.234 71.6802 194.234 71.6752 194.234 71.6703C194.235 71.6653 194.235 71.6604 194.235 71.6555C194.235 71.6505 194.235 71.6456 194.235 71.6406C194.235 71.6357 194.236 71.6308 194.236 71.6258C194.236 71.6209 194.236 71.616 194.236 71.611C194.236 71.6061 194.236 71.6011 194.237 71.5962C194.237 71.5912 194.237 71.5863 194.237 71.5814C194.237 71.5764 194.237 71.5715 194.237 71.5665C194.238 71.5616 194.238 71.5567 194.238 71.5517C194.238 71.5468 194.238 71.5418 194.238 71.5369C194.238 71.532 194.238 71.527 194.239 71.5221C194.239 71.5172 194.239 71.5122 194.239 71.5073C194.239 71.5023 194.239 71.4974 194.239 71.4924C194.24 71.4875 194.24 71.4826 194.24 71.4776C194.24 71.4727 194.24 71.4677 194.24 71.4628C194.24 71.4579 194.241 71.4529 194.241 71.448C194.241 71.443 194.241 71.4381 194.241 71.4332C194.241 71.4282 194.241 71.4233 194.242 71.4184C194.242 71.4134 194.242 71.4085 194.242 71.4035C194.242 71.3986 194.242 71.3936 194.242 71.3887C194.243 71.3838 194.243 71.3788 194.243 71.3739C194.243 71.3689 194.243 71.364 194.243 71.3591C194.243 71.3541 194.244 71.3492 194.244 71.3442C194.244 71.3393 194.244 71.3344 194.244 71.3294C194.244 71.3245 194.244 71.3195 194.245 71.3146C194.245 71.3097 194.245 71.3047 194.245 71.2998C194.245 71.2948 194.245 71.2899 194.245 71.285C194.246 71.28 194.246 71.2751 194.246 71.2701C194.246 71.2652 194.246 71.2603 194.246 71.2553C194.246 71.2504 194.247 71.2454 194.247 71.2405C194.247 71.2356 194.247 71.2306 194.247 71.2257C194.247 71.2207 194.247 71.2158 194.248 71.2109C194.248 71.2059 194.248 71.201 194.248 71.196C194.248 71.1911 194.248 71.1862 194.248 71.1812C194.249 71.1763 194.249 71.1713 194.249 71.1664C194.249 71.1615 194.249 71.1565 194.249 71.1516C194.249 71.1466 194.25 71.1417 194.25 71.1368C194.25 71.1318 194.25 71.1269 194.25 71.1219C194.25 71.117 194.25 71.1121 194.251 71.1071C194.251 71.1022 194.251 71.0972 194.251 71.0923C194.251 71.0874 194.251 71.0824 194.251 71.0775C194.251 71.0725 194.252 71.0676 194.252 71.0627C194.252 71.0577 194.252 71.0528 194.252 71.0478C194.252 71.0429 194.252 71.038 194.253 71.033C194.253 71.0281 194.253 71.0231 194.253 71.0182C194.253 71.0133 194.253 71.0083 194.253 71.0034C194.254 70.9984 194.254 70.9935 194.254 70.9886C194.254 70.9836 194.254 70.9787 194.254 70.9737C194.254 70.9688 194.255 70.9639 194.255 70.9589C194.255 70.954 194.255 70.949 194.255 70.9441C194.255 70.9392 194.255 70.9342 194.256 70.9293C194.256 70.9243 194.256 70.9194 194.256 70.9145C194.256 70.9095 194.256 70.9046 194.256 70.8996C194.257 70.8947 194.257 70.8898 194.257 70.8848C194.257 70.8799 194.257 70.8749 194.257 70.87C194.257 70.8651 194.258 70.8601 194.258 70.8552C194.258 70.8502 194.258 70.8453 194.258 70.8404C194.258 70.8354 194.258 70.8305 194.259 70.8255C194.259 70.8206 194.259 70.8157 194.259 70.8107C194.259 70.8058 194.259 70.8008 194.259 70.7959C194.26 70.791 194.26 70.786 194.26 70.7811C194.26 70.7761 194.26 70.7712 194.26 70.7663C194.26 70.7613 194.261 70.7564 194.261 70.7514C194.261 70.7465 194.261 70.7416 194.261 70.7366C194.261 70.7317 194.261 70.7267 194.262 70.7218C194.262 70.7169 194.262 70.7119 194.262 70.707C194.262 70.702 194.262 70.6971 194.262 70.6922C194.262 70.6872 194.263 70.6823 194.263 70.6773C194.263 70.6724 194.263 70.6675 194.263 70.6625C194.263 70.6576 194.263 70.6526 194.264 70.6477C194.264 70.6428 194.264 70.6378 194.264 70.6329C194.264 70.6279 194.264 70.623 194.264 70.6181C194.265 70.6131 194.265 70.6082 194.265 70.6032C194.265 70.5983 194.265 70.5934 194.265 70.5884C194.265 70.5835 194.266 70.5785 194.266 70.5736C194.266 70.5687 194.266 70.5637 194.266 70.5588C194.266 70.5538 194.266 70.5489 194.267 70.544C194.267 70.539 194.267 70.5341 194.267 70.5291C194.267 70.5242 194.267 70.5193 194.267 70.5143C194.268 70.5094 194.268 70.5044 194.268 70.4995C194.268 70.4946 194.268 70.4896 194.268 70.4847C194.268 70.4797 194.269 70.4748 194.269 70.4699C194.269 70.4649 194.269 70.46 194.269 70.455C194.269 70.4501 194.269 70.4452 194.27 70.4402C194.27 70.4353 194.27 70.4303 194.27 70.4254C194.27 70.4205 194.27 70.4155 194.27 70.4106C194.271 70.4056 194.271 70.4007 194.271 70.3958C194.271 70.3908 194.271 70.3859 194.271 70.3809C194.271 70.376 194.272 70.3711 194.272 70.3661C194.272 70.3612 194.272 70.3562 194.272 70.3513C194.272 70.3464 194.272 70.3414 194.273 70.3365C194.273 70.3315 194.273 70.3266 194.273 70.3217C194.273 70.3167 194.273 70.3118 194.273 70.3068C194.273 70.3019 194.274 70.297 194.274 70.292C194.274 70.2871 194.274 70.2821 194.274 70.2772C194.274 70.2723 194.274 70.2673 194.275 70.2624C194.275 70.2574 194.275 70.2525 194.275 70.2476C194.275 70.2426 194.275 70.2377 194.275 70.2327C194.276 70.2278 194.276 70.2229 194.276 70.2179C194.276 70.213 194.276 70.208 194.276 70.2031C194.276 70.1982 194.277 70.1932 194.277 70.1883C194.277 70.1833 194.277 70.1784 194.277 70.1735C194.277 70.1685 194.277 70.1636 194.278 70.1586C194.278 70.1537 194.278 70.1488 194.278 70.1438C194.278 70.1389 194.278 70.1339 194.278 70.129C194.279 70.1241 194.279 70.1191 194.279 70.1142C194.279 70.1092 194.279 70.1043 194.279 70.0993C194.279 70.0944 194.28 70.0895 194.28 70.0845C194.28 70.0796 194.28 70.0747 194.28 70.0697C194.28 70.0648 194.28 70.0598 194.281 70.0549C194.281 70.05 194.281 70.045 194.281 70.0401C194.281 70.0351 194.281 70.0302 194.281 70.0253C194.282 70.0203 194.282 70.0154 194.282 70.0104C194.282 70.0055 194.282 70.0005 194.282 69.9956C194.282 69.9907 194.283 69.9857 194.283 69.9808C194.283 69.9759 194.283 69.9709 194.283 69.966C194.283 69.961 194.283 69.9561 194.284 69.9512C194.284 69.9462 194.284 69.9413 194.284 69.9363C194.284 69.9314 194.284 69.9265 194.284 69.9215C194.285 69.9166 194.285 69.9116 194.285 69.9067C194.285 69.9017 194.285 69.8968 194.285 69.8919C194.285 69.8869 194.286 69.882 194.286 69.8771C194.286 69.8721 194.286 69.8672 194.286 69.8622C194.286 69.8573 194.286 69.8524 194.286 69.8474C194.287 69.8425 194.287 69.8375 194.287 69.8326C194.287 69.8277 194.287 69.8227 194.287 69.8178C194.287 69.8128 194.288 69.8079 194.288 69.8029C194.288 69.798 194.288 69.7931 194.288 69.7881C194.288 69.7832 194.288 69.7783 194.289 69.7733C194.289 69.7684 194.289 69.7634 194.289 69.7585C194.289 69.7536 194.289 69.7486 194.289 69.7437C194.29 69.7387 194.29 69.7338 194.29 69.7289C194.29 69.7239 194.29 69.719 194.29 69.714C194.29 69.7091 194.291 69.7041 194.291 69.6992C194.291 69.6943 194.291 69.6893 194.291 69.6844C194.291 69.6795 194.291 69.6745 194.292 69.6696C194.292 69.6646 194.292 69.6597 194.292 69.6548C194.292 69.6498 194.292 69.6449 194.292 69.6399C194.293 69.635 194.293 69.6301 194.293 69.6251C194.293 69.6202 194.293 69.6152 194.293 69.6103C194.293 69.6053 194.294 69.6004 194.294 69.5955C194.294 69.5905 194.294 69.5856 194.294 69.5807C194.294 69.5757 194.294 69.5708 194.295 69.5658C194.295 69.5609 194.295 69.556 194.295 69.551C194.295 69.5461 194.295 69.5411 194.295 69.5362C194.296 69.5312 194.296 69.5263 194.296 69.5214C194.296 69.5164 194.296 69.5115 194.296 69.5065C194.296 69.5016 194.297 69.4967 194.297 69.4917C194.297 69.4868 194.297 69.4819 194.297 69.4769C194.297 69.472 194.297 69.467 194.298 69.4621C194.298 69.4572 194.298 69.4522 194.298 69.4473C194.298 69.4423 194.298 69.4374 194.298 69.4324C194.298 69.4275 194.299 69.4226 194.299 69.4176C194.299 69.4127 194.299 69.4077 194.299 69.4028C194.299 69.3979 194.299 69.3929 194.3 69.388C194.3 69.3831 194.3 69.3781 194.3 69.3732C194.3 69.3682 194.3 69.3633 194.3 69.3584C194.301 69.3534 194.301 69.3485 194.301 69.3435C194.301 69.3386 194.301 69.3336 194.301 69.3287C194.301 69.3238 194.302 69.3188 194.302 69.3139C194.302 69.3089 194.302 69.304 194.302 69.2991C194.302 69.2941 194.302 69.2892 194.303 69.2843C194.303 69.2793 194.303 69.2744 194.303 69.2694C194.303 69.2645 194.303 69.2596 194.303 69.2546C194.304 69.2497 194.304 69.2447 194.304 69.2398C194.304 69.2348 194.304 69.2299 194.304 69.225C194.304 69.22 194.305 69.2151 194.305 69.2101C194.305 69.2052 194.305 69.2003 194.305 69.1953C194.305 69.1904 194.305 69.1855 194.306 69.1805C194.306 69.1756 194.306 69.1706 194.306 69.1657C194.306 69.1608 194.306 69.1558 194.306 69.1509C194.307 69.1459 194.307 69.141 194.307 69.136C194.307 69.1311 194.307 69.1262 194.307 69.1212C194.307 69.1163 194.308 69.1113 194.308 69.1064C194.308 69.1015 194.308 69.0965 194.308 69.0916C194.308 69.0867 194.308 69.0817 194.309 69.0768C194.309 69.0718 194.309 69.0669 194.309 69.062C194.309 69.057 194.309 69.0521 194.309 69.0471C194.309 69.0422 194.31 69.0372 194.31 69.0323C194.31 69.0274 194.31 69.0224 194.31 69.0175C194.31 69.0125 194.31 69.0076 194.311 69.0027C194.311 68.9977 194.311 68.9928 194.311 68.9879C194.311 68.9829 194.311 68.978 194.311 68.973C194.312 68.9681 194.312 68.9632 194.312 68.9582C194.312 68.9533 194.312 68.9483 194.312 68.9434C194.312 68.9384 194.313 68.9335 194.313 68.9286C194.313 68.9236 194.313 68.9187 194.313 68.9137C194.313 68.9088 194.313 68.9039 194.314 68.8989C194.314 68.894 194.314 68.8891 194.314 68.8841C194.314 68.8792 194.314 68.8742 194.314 68.8693C194.315 68.8643 194.315 68.8594 194.315 68.8545C194.315 68.8495 194.315 68.8446 194.315 68.8396C194.315 68.8347 194.316 68.8298 194.316 68.8248C194.316 68.8199 194.316 68.8149 194.316 68.81C194.316 68.8051 194.316 68.8001 194.317 68.7952C194.317 68.7903 194.317 68.7853 194.317 68.7804C194.317 68.7754 194.317 68.7705 194.317 68.7655C194.318 68.7606 194.318 68.7557 194.318 68.7507C194.318 68.7458 194.318 68.7408 194.318 68.7359C194.318 68.731 194.319 68.726 194.319 68.7211C194.319 68.7161 194.319 68.7112 194.319 68.7063C194.319 68.7013 194.319 68.6964 194.32 68.6915C194.32 68.6865 194.32 68.6816 194.32 68.6766C194.32 68.6717 194.32 68.6667 194.32 68.6618C194.321 68.6569 194.321 68.6519 194.321 68.647C194.321 68.642 194.321 68.6371 194.321 68.6322C194.321 68.6272 194.321 68.6223 194.322 68.6173C194.322 68.6124 194.322 68.6075 194.322 68.6025C194.322 68.5976 194.322 68.5927 194.322 68.5877C194.323 68.5828 194.323 68.5778 194.323 68.5729C194.323 68.5679 194.323 68.563 194.323 68.5581C194.323 68.5531 194.324 68.5482 194.324 68.5432C194.324 68.5383 194.324 68.5334 194.324 68.5284C194.324 68.5235 194.324 68.5185 194.325 68.5136C194.325 68.5087 194.325 68.5037 194.325 68.4988C194.325 68.4939 194.325 68.4889 194.325 68.484C194.326 68.479 194.326 68.4741 194.326 68.4691C194.326 68.4642 194.326 68.4593 194.326 68.4543C194.326 68.4494 194.327 68.4444 194.327 68.4395C194.327 68.4346 194.327 68.4296 194.327 68.4247C194.327 68.4197 194.327 68.4148 194.328 68.4099C194.328 68.4049 194.328 68.4 194.328 68.3951C194.328 68.3901 194.328 68.3852 194.328 68.3802C194.329 68.3753 194.329 68.3703 194.329 68.3654C194.329 68.3605 194.329 68.3555 194.329 68.3506C194.329 68.3456 194.33 68.3407 194.33 68.3358C194.33 68.3308 194.33 68.3259 194.33 68.3209C194.33 68.316 194.33 68.3111 194.331 68.3061C194.331 68.3012 194.331 68.2962 194.331 68.2913C194.331 68.2864 194.331 68.2814 194.331 68.2765C194.332 68.2715 194.332 68.2666 194.332 68.2617C194.332 68.2567 194.332 68.2518 194.332 68.2468C194.332 68.2419 194.333 68.237 194.333 68.232C194.333 68.2271 194.333 68.2221 194.333 68.2172C194.333 68.2123 194.333 68.2073 194.333 68.2024C194.334 68.1974 194.334 68.1925 194.334 68.1876C194.334 68.1826 194.334 68.1777 194.334 68.1727C194.334 68.1678 194.335 68.1629 194.335 68.1579C194.335 68.153 194.335 68.148 194.335 68.1431C194.335 68.1382 194.335 68.1332 194.336 68.1283C194.336 68.1233 194.336 68.1184 194.336 68.1135C194.336 68.1085 194.336 68.1036 194.336 68.0986C194.337 68.0937 194.337 68.0888 194.337 68.0838C194.337 68.0789 194.337 68.0739 194.337 68.069C194.337 68.0641 194.338 68.0591 194.338 68.0542C194.338 68.0492 194.338 68.0443 194.338 68.0394C194.338 68.0344 194.338 68.0295 194.339 68.0245C194.339 68.0196 194.339 68.0147 194.339 68.0097C194.339 68.0048 194.339 67.9998 194.339 67.9949C194.34 67.99 194.34 67.985 194.34 67.9801C194.34 67.9751 194.34 67.9702 194.34 67.9653C194.34 67.9603 194.341 67.9554 194.341 67.9504C194.341 67.9455 194.341 67.9406 194.341 67.9356C194.341 67.9307 194.341 67.9257 194.342 67.9208C194.342 67.9159 194.342 67.9109 194.342 67.906C194.342 67.901 194.342 67.8961 194.342 67.8912C194.343 67.8862 194.343 67.8813 194.343 67.8763C194.343 67.8714 194.343 67.8665 194.343 67.8615C194.343 67.8566 194.344 67.8516 194.344 67.8467C194.344 67.8418 194.344 67.8368 194.344 67.8319C194.344 67.8269 194.344 67.822 194.344 67.8171C194.345 67.8121 194.345 67.8072 194.345 67.8022C194.345 67.7973 194.345 67.7924 194.345 67.7874C194.345 67.7825 194.346 67.7775 194.346 67.7726C194.346 67.7677 194.346 67.7627 194.346 67.7578C194.346 67.7528 194.346 67.7479 194.347 67.743C194.347 67.738 194.347 67.7331 194.347 67.7281C194.347 67.7232 194.347 67.7183 194.347 67.7133C194.348 67.7084 194.348 67.7034 194.348 67.6985C194.348 67.6936 194.348 67.6886 194.348 67.6837C194.348 67.6787 194.349 67.6738 194.349 67.6689C194.349 67.6639 194.349 67.659 194.349 67.654C194.349 67.6491 194.349 67.6442 194.35 67.6392C194.35 67.6343 194.35 67.6293 194.35 67.6244C194.35 67.6195 194.35 67.6145 194.35 67.6096C194.351 67.6046 194.351 67.5997 194.351 67.5948C194.351 67.5898 194.351 67.5849 194.351 67.5799C194.351 67.575 194.352 67.5701 194.352 67.5651C194.352 67.5602 194.352 67.5552 194.352 67.5503C194.352 67.5454 194.352 67.5404 194.353 67.5355C194.353 67.5305 194.353 67.5256 194.353 67.5207C194.353 67.5157 194.353 67.5108 194.353 67.5058C194.354 67.5009 194.354 67.496 194.354 67.491C194.354 67.4861 194.354 67.4811 194.354 67.4762C194.354 67.4713 194.355 67.4663 194.355 67.4614C194.355 67.4564 194.355 67.4515 194.355 67.4466C194.355 67.4416 194.355 67.4367 194.356 67.4317C194.356 67.4268 194.356 67.4219 194.356 67.4169C194.356 67.412 194.356 67.407 194.356 67.4021C194.356 67.3972 194.357 67.3922 194.357 67.3873C194.357 67.3823 194.357 67.3774 194.357 67.3725C194.357 67.3675 194.357 67.3626 194.358 67.3576C194.358 67.3527 194.358 67.3478 194.358 67.3428C194.358 67.3379 194.358 67.3329 194.358 67.328C194.359 67.3231 194.359 67.3181 194.359 67.3132C194.359 67.3082 194.359 67.3033 194.359 67.2984C194.359 67.2934 194.36 67.2885 194.36 67.2835C194.36 67.2786 194.36 67.2737 194.36 67.2687C194.36 67.2638 194.36 67.2588 194.361 67.2539C194.361 67.249 194.361 67.244 194.361 67.2391C194.361 67.2341 194.361 67.2292 194.361 67.2243C194.362 67.2193 194.362 67.2144 194.362 67.2094C194.362 67.2045 194.362 67.1996 194.362 67.1946C194.362 67.1897 194.363 67.1847 194.363 67.1798C194.363 67.1749 194.363 67.1699 194.363 67.165C194.363 67.16 194.363 67.1551 194.364 67.1502C194.364 67.1452 194.364 67.1403 194.364 67.1353C194.364 67.1304 194.364 67.1255 194.364 67.1205C194.365 67.1156 194.365 67.1106 194.365 67.1057C194.365 67.1008 194.365 67.0958 194.365 67.0909C194.365 67.0859 194.366 67.081 194.366 67.076C194.366 67.0711 194.366 67.0662 194.366 67.0612C194.366 67.0563 194.366 67.0514 194.367 67.0464C194.367 67.0415 194.367 67.0365 194.367 67.0316C194.367 67.0267 194.367 67.0217 194.367 67.0168C194.368 67.0118 194.368 67.0069 194.368 67.002C194.368 66.997 194.368 66.9921 194.368 66.9871C194.368 66.9822 194.368 66.9772 194.369 66.9723C194.369 66.9674 194.369 66.9624 194.369 66.9575C194.369 66.9526 194.369 66.9476 194.369 66.9427C194.37 66.9377 194.37 66.9328 194.37 66.9279C194.37 66.9229 194.37 66.918 194.37 66.913C194.37 66.9081 194.371 66.9032 194.371 66.8982C194.371 66.8933 194.371 66.8883 194.371 66.8834C194.371 66.8784 194.371 66.8735 194.372 66.8686C194.372 66.8636 194.372 66.8587 194.372 66.8538C194.372 66.8488 194.372 66.8439 194.372 66.8389C194.373 66.834 194.373 66.8291 194.373 66.8241C194.373 66.8192 194.373 66.8142 194.373 66.8093C194.373 66.8044 194.374 66.7994 194.374 66.7945C194.374 66.7895 194.374 66.7846 194.374 66.7796C194.374 66.7747 194.374 66.7698 194.375 66.7648C194.375 66.7599 194.375 66.755 194.375 66.75C194.375 66.7451 194.375 66.7401 194.375 66.7352C194.376 66.7303 194.376 66.7253 194.376 66.7204C194.376 66.7154 194.376 66.7105 194.376 66.7056C194.376 66.7006 194.377 66.6957 194.377 66.6907C194.377 66.6858 194.377 66.6808 194.377 66.6759C194.377 66.671 194.377 66.666 194.378 66.6611C194.378 66.6562 194.378 66.6512 194.378 66.6463C194.378 66.6413 194.378 66.6364 194.378 66.6315C194.379 66.6265 194.379 66.6216 194.379 66.6166C194.379 66.6117 194.379 66.6068 194.379 66.6018C194.379 66.5969 194.38 66.5919 194.38 66.587C194.38 66.582 194.38 66.5771 194.38 66.5722C194.38 66.5672 194.38 66.5623 194.38 66.5574C194.381 66.5524 194.381 66.5475 194.381 66.5425C194.381 66.5376 194.381 66.5327 194.381 66.5277C194.381 66.5228 194.382 66.5178 194.382 66.5129C194.382 66.5079 194.382 66.503 194.382 66.4981C194.382 66.4931 194.382 66.4882 194.383 66.4832C194.383 66.4783 194.383 66.4734 194.383 66.4684C194.383 66.4635 194.383 66.4586 194.383 66.4536C194.384 66.4487 194.384 66.4437 194.384 66.4388C194.384 66.4339 194.384 66.4289 194.384 66.424C194.384 66.419 194.385 66.4141 194.385 66.4091C194.385 66.4042 194.385 66.3993 194.385 66.3943C194.385 66.3894 194.385 66.3844 194.386 66.3795C194.386 66.3746 194.386 66.3696 194.386 66.3647C194.386 66.3598 194.386 66.3548 194.386 66.3499C194.387 66.3449 194.387 66.34 194.387 66.3351C194.387 66.3301 194.387 66.3252 194.387 66.3202C194.387 66.3153 194.388 66.3103 194.388 66.3054C194.388 66.3005 194.388 66.2955 194.388 66.2906C194.388 66.2856 194.388 66.2807 194.389 66.2758C194.389 66.2708 194.389 66.2659 194.389 66.261C194.389 66.256 194.389 66.2511 194.389 66.2461C194.39 66.2412 194.39 66.2363 194.39 66.2313C194.39 66.2264 194.39 66.2214 194.39 66.2165C194.39 66.2115 194.391 66.2066 194.391 66.2017C194.391 66.1967 194.391 66.1918 194.391 66.1868C194.391 66.1819 194.391 66.177 194.391 66.172C194.392 66.1671 194.392 66.1622 194.392 66.1572L186.395 65.9287C186.395 65.9337 186.395 65.9386 186.395 65.9435C186.395 65.9485 186.394 65.9534 186.394 65.9584C186.394 65.9633 186.394 65.9682 186.394 65.9732C186.394 65.9781 186.394 65.9831 186.393 65.988C186.393 65.993 186.393 65.9979 186.393 66.0028C186.393 66.0078 186.393 66.0127 186.393 66.0177C186.393 66.0226 186.392 66.0275 186.392 66.0325C186.392 66.0374 186.392 66.0423 186.392 66.0473C186.392 66.0522 186.392 66.0572 186.391 66.0621C186.391 66.067 186.391 66.072 186.391 66.0769C186.391 66.0819 186.391 66.0868 186.391 66.0918C186.39 66.0967 186.39 66.1016 186.39 66.1066C186.39 66.1115 186.39 66.1165 186.39 66.1214C186.39 66.1263 186.389 66.1313 186.389 66.1362C186.389 66.1411 186.389 66.1461 186.389 66.151C186.389 66.156 186.389 66.1609 186.388 66.1658C186.388 66.1708 186.388 66.1757 186.388 66.1807C186.388 66.1856 186.388 66.1906 186.388 66.1955C186.387 66.2004 186.387 66.2054 186.387 66.2103C186.387 66.2153 186.387 66.2202 186.387 66.2251C186.387 66.2301 186.386 66.235 186.386 66.2399C186.386 66.2449 186.386 66.2498 186.386 66.2548C186.386 66.2597 186.386 66.2646 186.385 66.2696C186.385 66.2745 186.385 66.2795 186.385 66.2844C186.385 66.2894 186.385 66.2943 186.385 66.2992C186.384 66.3042 186.384 66.3091 186.384 66.3141C186.384 66.319 186.384 66.3239 186.384 66.3289C186.384 66.3338 186.383 66.3387 186.383 66.3437C186.383 66.3486 186.383 66.3536 186.383 66.3585C186.383 66.3634 186.383 66.3684 186.382 66.3733C186.382 66.3783 186.382 66.3832 186.382 66.3882C186.382 66.3931 186.382 66.398 186.382 66.403C186.382 66.4079 186.381 66.4129 186.381 66.4178C186.381 66.4227 186.381 66.4277 186.381 66.4326C186.381 66.4375 186.381 66.4425 186.38 66.4474C186.38 66.4524 186.38 66.4573 186.38 66.4622C186.38 66.4672 186.38 66.4721 186.38 66.4771C186.379 66.482 186.379 66.487 186.379 66.4919C186.379 66.4968 186.379 66.5018 186.379 66.5067C186.379 66.5117 186.378 66.5166 186.378 66.5215C186.378 66.5265 186.378 66.5314 186.378 66.5363C186.378 66.5413 186.378 66.5462 186.377 66.5512C186.377 66.5561 186.377 66.5611 186.377 66.566C186.377 66.5709 186.377 66.5759 186.377 66.5808C186.376 66.5858 186.376 66.5907 186.376 66.5956C186.376 66.6006 186.376 66.6055 186.376 66.6105C186.376 66.6154 186.375 66.6203 186.375 66.6253C186.375 66.6302 186.375 66.6351 186.375 66.6401C186.375 66.645 186.375 66.65 186.374 66.6549C186.374 66.6599 186.374 66.6648 186.374 66.6697C186.374 66.6747 186.374 66.6796 186.374 66.6846C186.373 66.6895 186.373 66.6944 186.373 66.6994C186.373 66.7043 186.373 66.7093 186.373 66.7142C186.373 66.7191 186.372 66.7241 186.372 66.729C186.372 66.7339 186.372 66.7389 186.372 66.7438C186.372 66.7488 186.372 66.7537 186.371 66.7587C186.371 66.7636 186.371 66.7685 186.371 66.7735C186.371 66.7784 186.371 66.7834 186.371 66.7883C186.37 66.7932 186.37 66.7982 186.37 66.8031C186.37 66.8081 186.37 66.813 186.37 66.8179C186.37 66.8229 186.369 66.8278 186.369 66.8327C186.369 66.8377 186.369 66.8426 186.369 66.8476C186.369 66.8525 186.369 66.8575 186.369 66.8624C186.368 66.8673 186.368 66.8723 186.368 66.8772C186.368 66.8822 186.368 66.8871 186.368 66.892C186.368 66.897 186.367 66.9019 186.367 66.9069C186.367 66.9118 186.367 66.9167 186.367 66.9217C186.367 66.9266 186.367 66.9315 186.366 66.9365C186.366 66.9414 186.366 66.9464 186.366 66.9513C186.366 66.9563 186.366 66.9612 186.366 66.9661C186.365 66.9711 186.365 66.976 186.365 66.981C186.365 66.9859 186.365 66.9908 186.365 66.9958C186.365 67.0007 186.364 67.0057 186.364 67.0106C186.364 67.0155 186.364 67.0205 186.364 67.0254C186.364 67.0303 186.364 67.0353 186.363 67.0402C186.363 67.0452 186.363 67.0501 186.363 67.0551C186.363 67.06 186.363 67.0649 186.363 67.0699C186.362 67.0748 186.362 67.0798 186.362 67.0847C186.362 67.0896 186.362 67.0946 186.362 67.0995C186.362 67.1045 186.361 67.1094 186.361 67.1143C186.361 67.1193 186.361 67.1242 186.361 67.1292C186.361 67.1341 186.361 67.139 186.36 67.144C186.36 67.1489 186.36 67.1539 186.36 67.1588C186.36 67.1637 186.36 67.1687 186.36 67.1736C186.359 67.1786 186.359 67.1835 186.359 67.1884C186.359 67.1934 186.359 67.1983 186.359 67.2033C186.359 67.2082 186.358 67.2131 186.358 67.2181C186.358 67.223 186.358 67.228 186.358 67.2329C186.358 67.2378 186.358 67.2428 186.357 67.2477C186.357 67.2527 186.357 67.2576 186.357 67.2625C186.357 67.2675 186.357 67.2724 186.357 67.2774C186.357 67.2823 186.356 67.2872 186.356 67.2922C186.356 67.2971 186.356 67.3021 186.356 67.307C186.356 67.3119 186.356 67.3169 186.355 67.3218C186.355 67.3268 186.355 67.3317 186.355 67.3366C186.355 67.3416 186.355 67.3465 186.355 67.3515C186.354 67.3564 186.354 67.3613 186.354 67.3663C186.354 67.3712 186.354 67.3762 186.354 67.3811C186.354 67.386 186.353 67.391 186.353 67.3959C186.353 67.4009 186.353 67.4058 186.353 67.4107C186.353 67.4157 186.353 67.4206 186.352 67.4256C186.352 67.4305 186.352 67.4354 186.352 67.4404C186.352 67.4453 186.352 67.4503 186.352 67.4552C186.351 67.4601 186.351 67.4651 186.351 67.47C186.351 67.475 186.351 67.4799 186.351 67.4848C186.351 67.4898 186.35 67.4947 186.35 67.4997C186.35 67.5046 186.35 67.5095 186.35 67.5145C186.35 67.5194 186.35 67.5244 186.349 67.5293C186.349 67.5342 186.349 67.5392 186.349 67.5441C186.349 67.5491 186.349 67.554 186.349 67.5589C186.348 67.5639 186.348 67.5688 186.348 67.5738C186.348 67.5787 186.348 67.5836 186.348 67.5886C186.348 67.5935 186.347 67.5985 186.347 67.6034C186.347 67.6083 186.347 67.6133 186.347 67.6182C186.347 67.6232 186.347 67.6281 186.346 67.633C186.346 67.638 186.346 67.6429 186.346 67.6479C186.346 67.6528 186.346 67.6577 186.346 67.6627C186.346 67.6676 186.345 67.6726 186.345 67.6775C186.345 67.6824 186.345 67.6874 186.345 67.6923C186.345 67.6973 186.345 67.7022 186.344 67.7071C186.344 67.7121 186.344 67.717 186.344 67.722C186.344 67.7269 186.344 67.7318 186.344 67.7368C186.343 67.7417 186.343 67.7467 186.343 67.7516C186.343 67.7565 186.343 67.7615 186.343 67.7664C186.343 67.7714 186.342 67.7763 186.342 67.7812C186.342 67.7862 186.342 67.7911 186.342 67.7961C186.342 67.801 186.342 67.8059 186.341 67.8109C186.341 67.8158 186.341 67.8208 186.341 67.8257C186.341 67.8306 186.341 67.8356 186.341 67.8405C186.34 67.8455 186.34 67.8504 186.34 67.8553C186.34 67.8603 186.34 67.8652 186.34 67.8702C186.34 67.8751 186.339 67.88 186.339 67.885C186.339 67.8899 186.339 67.8949 186.339 67.8998C186.339 67.9047 186.339 67.9097 186.338 67.9146C186.338 67.9196 186.338 67.9245 186.338 67.9294C186.338 67.9344 186.338 67.9393 186.338 67.9443C186.337 67.9492 186.337 67.9541 186.337 67.9591C186.337 67.964 186.337 67.969 186.337 67.9739C186.337 67.9788 186.336 67.9838 186.336 67.9887C186.336 67.9937 186.336 67.9986 186.336 68.0035C186.336 68.0085 186.336 68.0134 186.335 68.0184C186.335 68.0233 186.335 68.0282 186.335 68.0332C186.335 68.0381 186.335 68.0431 186.335 68.048C186.334 68.0529 186.334 68.0579 186.334 68.0628C186.334 68.0678 186.334 68.0727 186.334 68.0776C186.334 68.0826 186.334 68.0875 186.333 68.0925C186.333 68.0974 186.333 68.1023 186.333 68.1073C186.333 68.1122 186.333 68.1172 186.333 68.1221C186.332 68.127 186.332 68.132 186.332 68.1369C186.332 68.1419 186.332 68.1468 186.332 68.1517C186.332 68.1567 186.331 68.1616 186.331 68.1666C186.331 68.1715 186.331 68.1764 186.331 68.1814C186.331 68.1863 186.331 68.1913 186.33 68.1962C186.33 68.2011 186.33 68.2061 186.33 68.211C186.33 68.216 186.33 68.2209 186.33 68.2258C186.329 68.2308 186.329 68.2357 186.329 68.2407C186.329 68.2456 186.329 68.2505 186.329 68.2555C186.329 68.2604 186.328 68.2654 186.328 68.2703C186.328 68.2752 186.328 68.2802 186.328 68.2851C186.328 68.2901 186.328 68.295 186.327 68.2999C186.327 68.3049 186.327 68.3098 186.327 68.3148C186.327 68.3197 186.327 68.3246 186.327 68.3296C186.326 68.3345 186.326 68.3395 186.326 68.3444C186.326 68.3493 186.326 68.3543 186.326 68.3592C186.326 68.3642 186.325 68.3691 186.325 68.374C186.325 68.379 186.325 68.3839 186.325 68.3889C186.325 68.3938 186.325 68.3987 186.324 68.4037C186.324 68.4086 186.324 68.4136 186.324 68.4185C186.324 68.4234 186.324 68.4284 186.324 68.4333C186.323 68.4383 186.323 68.4432 186.323 68.4482C186.323 68.4531 186.323 68.458 186.323 68.463C186.323 68.4679 186.322 68.4728 186.322 68.4778C186.322 68.4827 186.322 68.4877 186.322 68.4926C186.322 68.4975 186.322 68.5025 186.322 68.5074C186.321 68.5124 186.321 68.5173 186.321 68.5222C186.321 68.5272 186.321 68.5321 186.321 68.5371C186.321 68.542 186.32 68.547 186.32 68.5519C186.32 68.5568 186.32 68.5618 186.32 68.5667C186.32 68.5716 186.32 68.5766 186.319 68.5815C186.319 68.5865 186.319 68.5914 186.319 68.5963C186.319 68.6013 186.319 68.6062 186.319 68.6112C186.318 68.6161 186.318 68.621 186.318 68.626C186.318 68.6309 186.318 68.6359 186.318 68.6408C186.318 68.6458 186.317 68.6507 186.317 68.6556C186.317 68.6606 186.317 68.6655 186.317 68.6704C186.317 68.6754 186.317 68.6803 186.316 68.6853C186.316 68.6902 186.316 68.6951 186.316 68.7001C186.316 68.705 186.316 68.71 186.316 68.7149C186.315 68.7198 186.315 68.7248 186.315 68.7297C186.315 68.7347 186.315 68.7396 186.315 68.7446C186.315 68.7495 186.314 68.7544 186.314 68.7594C186.314 68.7643 186.314 68.7692 186.314 68.7742C186.314 68.7791 186.314 68.7841 186.313 68.789C186.313 68.7939 186.313 68.7989 186.313 68.8038C186.313 68.8088 186.313 68.8137 186.313 68.8186C186.312 68.8236 186.312 68.8285 186.312 68.8335C186.312 68.8384 186.312 68.8434 186.312 68.8483C186.312 68.8532 186.311 68.8582 186.311 68.8631C186.311 68.868 186.311 68.873 186.311 68.8779C186.311 68.8829 186.311 68.8878 186.311 68.8927C186.31 68.8977 186.31 68.9026 186.31 68.9076C186.31 68.9125 186.31 68.9174 186.31 68.9224C186.31 68.9273 186.309 68.9323 186.309 68.9372C186.309 68.9422 186.309 68.9471 186.309 68.952C186.309 68.957 186.309 68.9619 186.308 68.9668C186.308 68.9718 186.308 68.9767 186.308 68.9817C186.308 68.9866 186.308 68.9915 186.308 68.9965C186.307 69.0014 186.307 69.0064 186.307 69.0113C186.307 69.0163 186.307 69.0212 186.307 69.0261C186.307 69.0311 186.306 69.036 186.306 69.041C186.306 69.0459 186.306 69.0508 186.306 69.0558C186.306 69.0607 186.306 69.0656 186.305 69.0706C186.305 69.0755 186.305 69.0805 186.305 69.0854C186.305 69.0903 186.305 69.0953 186.305 69.1002C186.304 69.1052 186.304 69.1101 186.304 69.1151C186.304 69.12 186.304 69.1249 186.304 69.1299C186.304 69.1348 186.303 69.1398 186.303 69.1447C186.303 69.1496 186.303 69.1546 186.303 69.1595C186.303 69.1644 186.303 69.1694 186.302 69.1743C186.302 69.1793 186.302 69.1842 186.302 69.1891C186.302 69.1941 186.302 69.199 186.302 69.204C186.301 69.2089 186.301 69.2139 186.301 69.2188C186.301 69.2237 186.301 69.2287 186.301 69.2336C186.301 69.2386 186.3 69.2435 186.3 69.2484C186.3 69.2534 186.3 69.2583 186.3 69.2632C186.3 69.2682 186.3 69.2731 186.299 69.2781C186.299 69.283 186.299 69.2879 186.299 69.2929C186.299 69.2978 186.299 69.3028 186.299 69.3077C186.299 69.3127 186.298 69.3176 186.298 69.3225C186.298 69.3275 186.298 69.3324 186.298 69.3374C186.298 69.3423 186.298 69.3472 186.297 69.3522C186.297 69.3571 186.297 69.362 186.297 69.367C186.297 69.3719 186.297 69.3769 186.297 69.3818C186.296 69.3867 186.296 69.3917 186.296 69.3966C186.296 69.4016 186.296 69.4065 186.296 69.4115C186.296 69.4164 186.295 69.4213 186.295 69.4263C186.295 69.4312 186.295 69.4362 186.295 69.4411C186.295 69.446 186.295 69.451 186.294 69.4559C186.294 69.4608 186.294 69.4658 186.294 69.4707C186.294 69.4757 186.294 69.4806 186.294 69.4855C186.293 69.4905 186.293 69.4954 186.293 69.5004C186.293 69.5053 186.293 69.5103 186.293 69.5152C186.293 69.5201 186.292 69.5251 186.292 69.53C186.292 69.535 186.292 69.5399 186.292 69.5448C186.292 69.5498 186.292 69.5547 186.291 69.5596C186.291 69.5646 186.291 69.5695 186.291 69.5745C186.291 69.5794 186.291 69.5844 186.291 69.5893C186.29 69.5942 186.29 69.5992 186.29 69.6041C186.29 69.6091 186.29 69.614 186.29 69.6189C186.29 69.6239 186.289 69.6288 186.289 69.6338C186.289 69.6387 186.289 69.6436 186.289 69.6486C186.289 69.6535 186.289 69.6584 186.288 69.6634C186.288 69.6683 186.288 69.6733 186.288 69.6782C186.288 69.6832 186.288 69.6881 186.288 69.693C186.287 69.698 186.287 69.7029 186.287 69.7079C186.287 69.7128 186.287 69.7177 186.287 69.7227C186.287 69.7276 186.286 69.7326 186.286 69.7375C186.286 69.7424 186.286 69.7474 186.286 69.7523C186.286 69.7572 186.286 69.7622 186.286 69.7671C186.285 69.7721 186.285 69.777 186.285 69.782C186.285 69.7869 186.285 69.7918 186.285 69.7968C186.285 69.8017 186.284 69.8067 186.284 69.8116C186.284 69.8165 186.284 69.8215 186.284 69.8264C186.284 69.8314 186.284 69.8363 186.283 69.8412C186.283 69.8462 186.283 69.8511 186.283 69.856C186.283 69.861 186.283 69.8659 186.283 69.8709C186.282 69.8758 186.282 69.8808 186.282 69.8857C186.282 69.8906 186.282 69.8956 186.282 69.9005C186.282 69.9055 186.281 69.9104 186.281 69.9153C186.281 69.9203 186.281 69.9252 186.281 69.9302C186.281 69.9351 186.281 69.94 186.28 69.945C186.28 69.9499 186.28 69.9548 186.28 69.9598C186.28 69.9647 186.28 69.9697 186.28 69.9746C186.279 69.9796 186.279 69.9845 186.279 69.9894C186.279 69.9944 186.279 69.9993 186.279 70.0043C186.279 70.0092 186.278 70.0141 186.278 70.0191C186.278 70.024 186.278 70.029 186.278 70.0339C186.278 70.0388 186.278 70.0438 186.277 70.0487C186.277 70.0536 186.277 70.0586 186.277 70.0635C186.277 70.0685 186.277 70.0734 186.277 70.0784C186.276 70.0833 186.276 70.0882 186.276 70.0932C186.276 70.0981 186.276 70.1031 186.276 70.108C186.276 70.1129 186.275 70.1179 186.275 70.1228C186.275 70.1278 186.275 70.1327 186.275 70.1376C186.275 70.1426 186.275 70.1475 186.275 70.1525C186.274 70.1574 186.274 70.1623 186.274 70.1673C186.274 70.1722 186.274 70.1772 186.274 70.1821C186.274 70.187 186.273 70.192 186.273 70.1969C186.273 70.2019 186.273 70.2068 186.273 70.2117C186.273 70.2167 186.273 70.2216 186.272 70.2266C186.272 70.2315 186.272 70.2364 186.272 70.2414C186.272 70.2463 186.272 70.2513 186.272 70.2562C186.271 70.2611 186.271 70.2661 186.271 70.271C186.271 70.276 186.271 70.2809 186.271 70.2858C186.271 70.2908 186.27 70.2957 186.27 70.3007C186.27 70.3056 186.27 70.3105 186.27 70.3155C186.27 70.3204 186.27 70.3254 186.269 70.3303C186.269 70.3352 186.269 70.3402 186.269 70.3451C186.269 70.3501 186.269 70.355 186.269 70.3599C186.268 70.3649 186.268 70.3698 186.268 70.3748C186.268 70.3797 186.268 70.3846 186.268 70.3896C186.268 70.3945 186.267 70.3995 186.267 70.4044C186.267 70.4093 186.267 70.4143 186.267 70.4192C186.267 70.4242 186.267 70.4291 186.266 70.434C186.266 70.439 186.266 70.4439 186.266 70.4489C186.266 70.4538 186.266 70.4587 186.266 70.4637C186.265 70.4686 186.265 70.4736 186.265 70.4785C186.265 70.4834 186.265 70.4884 186.265 70.4933C186.265 70.4983 186.264 70.5032 186.264 70.5081C186.264 70.5131 186.264 70.518 186.264 70.523C186.264 70.5279 186.264 70.5328 186.264 70.5378C186.263 70.5427 186.263 70.5477 186.263 70.5526C186.263 70.5575 186.263 70.5625 186.263 70.5674C186.263 70.5724 186.262 70.5773 186.262 70.5822C186.262 70.5872 186.262 70.5921 186.262 70.5971C186.262 70.602 186.262 70.6069 186.261 70.6119C186.261 70.6168 186.261 70.6218 186.261 70.6267C186.261 70.6316 186.261 70.6366 186.261 70.6415C186.26 70.6465 186.26 70.6514 186.26 70.6563C186.26 70.6613 186.26 70.6662 186.26 70.6712C186.26 70.6761 186.259 70.681 186.259 70.686C186.259 70.6909 186.259 70.6959 186.259 70.7008C186.259 70.7057 186.259 70.7107 186.258 70.7156C186.258 70.7206 186.258 70.7255 186.258 70.7304C186.258 70.7354 186.258 70.7403 186.258 70.7453C186.257 70.7502 186.257 70.7551 186.257 70.7601C186.257 70.765 186.257 70.77 186.257 70.7749C186.257 70.7798 186.256 70.7848 186.256 70.7897C186.256 70.7947 186.256 70.7996 186.256 70.8045C186.256 70.8095 186.256 70.8144 186.255 70.8194C186.255 70.8243 186.255 70.8292 186.255 70.8342C186.255 70.8391 186.255 70.8441 186.255 70.849C186.254 70.8539 186.254 70.8589 186.254 70.8638C186.254 70.8688 186.254 70.8737 186.254 70.8786C186.254 70.8836 186.253 70.8885 186.253 70.8935C186.253 70.8984 186.253 70.9033 186.253 70.9083C186.253 70.9132 186.253 70.9182 186.252 70.9231C186.252 70.928 186.252 70.933 186.252 70.9379C186.252 70.9429 186.252 70.9478 186.252 70.9527C186.251 70.9577 186.251 70.9626 186.251 70.9676C186.251 70.9725 186.251 70.9774 186.251 70.9824C186.251 70.9873 186.251 70.9923 186.25 70.9972C186.25 71.0021 186.25 71.0071 186.25 71.012C186.25 71.017 186.25 71.0219 186.25 71.0268C186.249 71.0318 186.249 71.0367 186.249 71.0417C186.249 71.0466 186.249 71.0515 186.249 71.0565C186.249 71.0614 186.248 71.0664 186.248 71.0713C186.248 71.0762 186.248 71.0812 186.248 71.0861C186.248 71.0911 186.248 71.096 186.247 71.1009C186.247 71.1059 186.247 71.1108 186.247 71.1158C186.247 71.1207 186.247 71.1256 186.247 71.1306C186.246 71.1355 186.246 71.1405 186.246 71.1454C186.246 71.1503 186.246 71.1553 186.246 71.1602C186.246 71.1652 186.245 71.1701 186.245 71.175C186.245 71.18 186.245 71.1849 186.245 71.1899C186.245 71.1948 186.245 71.1997 186.244 71.2047C186.244 71.2096 186.244 71.2146 186.244 71.2195C186.244 71.2244 186.244 71.2294 186.244 71.2343C186.243 71.2393 186.243 71.2442 186.243 71.2491C186.243 71.2541 186.243 71.259 186.243 71.264C186.243 71.2689 186.242 71.2738 186.242 71.2788C186.242 71.2837 186.242 71.2887 186.242 71.2936C186.242 71.2985 186.242 71.3035 186.241 71.3084C186.241 71.3134 186.241 71.3183 186.241 71.3232C186.241 71.3282 186.241 71.3331 186.241 71.3381C186.24 71.343 186.24 71.3479 186.24 71.3529C186.24 71.3578 186.24 71.3628 186.24 71.3677C186.24 71.3727 186.24 71.3776 186.239 71.3825C186.239 71.3875 186.239 71.3924 186.239 71.3973C186.239 71.4023 186.239 71.4072 186.239 71.4122C186.238 71.4171 186.238 71.422 186.238 71.427C186.238 71.4319 186.238 71.4369 186.238 71.4418C186.238 71.4467 186.237 71.4517 186.237 71.4566C186.237 71.4616 186.237 71.4665 186.237 71.4715C186.237 71.4764 186.237 71.4813 186.236 71.4863C186.236 71.4912 186.236 71.4961 186.236 71.5011C186.236 71.506 186.236 71.511 186.236 71.5159C186.235 71.5208 186.235 71.5258 186.235 71.5307C186.235 71.5357 186.235 71.5406 186.235 71.5455C186.235 71.5505 186.234 71.5554 186.234 71.5604C186.234 71.5653 186.234 71.5703 186.234 71.5752C186.234 71.5801 186.234 71.5851 186.233 71.59C186.233 71.5949 186.233 71.5999 186.233 71.6048C186.233 71.6098 186.233 71.6147 186.233 71.6196C186.232 71.6246 186.232 71.6295 186.232 71.6345C186.232 71.6394 186.232 71.6443 186.232 71.6493C186.232 71.6542 186.231 71.6592 186.231 71.6641C186.231 71.6691 186.231 71.674 186.231 71.6789C186.231 71.6839 186.231 71.6888 186.23 71.6937C186.23 71.6987 186.23 71.7036 186.23 71.7086C186.23 71.7135 186.23 71.7184 186.23 71.7234C186.229 71.7283 186.229 71.7333 186.229 71.7382C186.229 71.7431 186.229 71.7481 186.229 71.753C186.229 71.758 186.229 71.7629 186.228 71.7679C186.228 71.7728 186.228 71.7777 186.228 71.7827C186.228 71.7876 186.228 71.7925 186.228 71.7975C186.227 71.8024 186.227 71.8074 186.227 71.8123C186.227 71.8172 186.227 71.8222 186.227 71.8271C186.227 71.8321 186.226 71.837 186.226 71.8419C186.226 71.8469 186.226 71.8518 186.226 71.8568C186.226 71.8617 186.226 71.8667 186.225 71.8716C186.225 71.8765 186.225 71.8815 186.225 71.8864C186.225 71.8913 186.225 71.8963 186.225 71.9012C186.224 71.9062 186.224 71.9111 186.224 71.916C186.224 71.921 186.224 71.9259 186.224 71.9309C186.224 71.9358 186.223 71.9408 186.223 71.9457C186.223 71.9506 186.223 71.9556 186.223 71.9605C186.223 71.9655 186.223 71.9704 186.222 71.9753C186.222 71.9803 186.222 71.9852 186.222 71.9901C186.222 71.9951 186.222 72 186.222 72.005C186.221 72.0099 186.221 72.0148 186.221 72.0198C186.221 72.0247 186.221 72.0297 186.221 72.0346C186.221 72.0396 186.22 72.0445 186.22 72.0494C186.22 72.0544 186.22 72.0593 186.22 72.0643C186.22 72.0692 186.22 72.0741 186.219 72.0791C186.219 72.084 186.219 72.0889 186.219 72.0939C186.219 72.0988 186.219 72.1038 186.219 72.1087C186.218 72.1136 186.218 72.1186 186.218 72.1235C186.218 72.1285 186.218 72.1334 186.218 72.1384C186.218 72.1433 186.217 72.1482 186.217 72.1532C186.217 72.1581 186.217 72.1631 186.217 72.168C186.217 72.1729 186.217 72.1779 186.216 72.1828C186.216 72.1877 186.216 72.1927 186.216 72.1976C186.216 72.2026 186.216 72.2075 186.216 72.2124C186.216 72.2174 186.215 72.2223 186.215 72.2273C186.215 72.2322 186.215 72.2372 186.215 72.2421C186.215 72.247 186.215 72.252 186.214 72.2569C186.214 72.2619 186.214 72.2668 186.214 72.2717C186.214 72.2767 186.214 72.2816 186.214 72.2865C186.213 72.2915 186.213 72.2964 186.213 72.3014C186.213 72.3063 186.213 72.3112 186.213 72.3162C186.213 72.3211 186.212 72.3261 186.212 72.331C186.212 72.336 186.212 72.3409 186.212 72.3458C186.212 72.3508 186.212 72.3557 186.211 72.3607C186.211 72.3656 186.211 72.3705 186.211 72.3755C186.211 72.3804 186.211 72.3853 186.211 72.3903C186.21 72.3952 186.21 72.4002 186.21 72.4051C186.21 72.41 186.21 72.415 186.21 72.4199C186.21 72.4249 186.209 72.4298 186.209 72.4348C186.209 72.4397 186.209 72.4446 186.209 72.4496C186.209 72.4545 186.209 72.4595 186.208 72.4644C186.208 72.4693 186.208 72.4743 186.208 72.4792C186.208 72.4841 186.208 72.4891 186.208 72.494C186.207 72.499 186.207 72.5039 186.207 72.5089C186.207 72.5138 186.207 72.5187 186.207 72.5237C186.207 72.5286 186.206 72.5336 186.206 72.5385C186.206 72.5434 186.206 72.5484 186.206 72.5533C186.206 72.5583 186.206 72.5632 186.205 72.5681C186.205 72.5731 186.205 72.578 186.205 72.5829C186.205 72.5879 186.205 72.5928 186.205 72.5978C186.204 72.6027 186.204 72.6077 186.204 72.6126C186.204 72.6175 186.204 72.6225 186.204 72.6274C186.204 72.6324 186.204 72.6373 186.203 72.6422C186.203 72.6472 186.203 72.6521 186.203 72.6571C186.203 72.662 186.203 72.6669 186.203 72.6719C186.202 72.6768 186.202 72.6817 186.202 72.6867C186.202 72.6916 186.202 72.6966 186.202 72.7015C186.202 72.7065 186.201 72.7114 186.201 72.7163C186.201 72.7213 186.201 72.7262 186.201 72.7312C186.201 72.7361 186.201 72.741 186.2 72.746C186.2 72.7509 186.2 72.7559 186.2 72.7608C186.2 72.7657 186.2 72.7707 186.2 72.7756C186.199 72.7805 186.199 72.7855 186.199 72.7904C186.199 72.7954 186.199 72.8003 186.199 72.8053C186.199 72.8102 186.198 72.8151 186.198 72.8201C186.198 72.825 186.198 72.83 186.198 72.8349C186.198 72.8398 186.198 72.8448 186.197 72.8497C186.197 72.8547 186.197 72.8596 186.197 72.8645C186.197 72.8695 186.197 72.8744 186.197 72.8793C186.196 72.8843 186.196 72.8892 186.196 72.8942C186.196 72.8991 186.196 72.9041 186.196 72.909C186.196 72.9139 186.195 72.9189 186.195 72.9238C186.195 72.9288 186.195 72.9337 186.195 72.9386C186.195 72.9436 186.195 72.9485 186.194 72.9535C186.194 72.9584 186.194 72.9633 186.194 72.9683C186.194 72.9732 186.194 72.9781 186.194 72.9831C186.193 72.988 186.193 72.993 186.193 72.9979C186.193 73.0029 186.193 73.0078 186.193 73.0127C186.193 73.0177 186.193 73.0226 186.192 73.0276C186.192 73.0325 186.192 73.0374 186.192 73.0424C186.192 73.0473 186.192 73.0523 186.192 73.0572C186.191 73.0621 186.191 73.0671 186.191 73.072C186.191 73.077 186.191 73.0819 186.191 73.0868C186.191 73.0918 186.19 73.0967 186.19 73.1017C186.19 73.1066 186.19 73.1115 186.19 73.1165C186.19 73.1214 186.19 73.1264 186.189 73.1313C186.189 73.1362 186.189 73.1412 186.189 73.1461C186.189 73.1511 186.189 73.156 186.189 73.1609C186.188 73.1659 186.188 73.1708 186.188 73.1758C186.188 73.1807 186.188 73.1856 186.188 73.1906C186.188 73.1955 186.187 73.2005 186.187 73.2054C186.187 73.2103 186.187 73.2153 186.187 73.2202C186.187 73.2252 186.187 73.2301 186.186 73.235C186.186 73.24 186.186 73.2449 186.186 73.2499C186.186 73.2548 186.186 73.2597 186.186 73.2647C186.185 73.2696 186.185 73.2746 186.185 73.2795C186.185 73.2844 186.185 73.2894 186.185 73.2943C186.185 73.2993 186.184 73.3042 186.184 73.3091C186.184 73.3141 186.184 73.319 186.184 73.324C186.184 73.3289 186.184 73.3338 186.183 73.3388C186.183 73.3437 186.183 73.3487 186.183 73.3536C186.183 73.3585 186.183 73.3635 186.183 73.3684C186.182 73.3734 186.182 73.3783 186.182 73.3832C186.182 73.3882 186.182 73.3931 186.182 73.3981C186.182 73.403 186.181 73.4079 186.181 73.4129C186.181 73.4178 186.181 73.4228 186.181 73.4277C186.181 73.4326 186.181 73.4376 186.181 73.4425C186.18 73.4475 186.18 73.4524 186.18 73.4573C186.18 73.4623 186.18 73.4672 186.18 73.4722C186.18 73.4771 186.179 73.482 186.179 73.487C186.179 73.4919 186.179 73.4969 186.179 73.5018C186.179 73.5067 186.179 73.5117 186.178 73.5166L194.175 73.7451ZM194.387 66.2648C194.533 63.653 194.642 61.4651 194.715 59.7056L186.722 59.3725C186.651 61.0818 186.544 63.2298 186.4 65.8211L194.387 66.2648ZM194.706 59.858C194.777 58.9677 194.837 58.3204 194.884 57.8941C194.908 57.6759 194.925 57.5586 194.932 57.5135C194.936 57.4881 194.931 57.5278 194.913 57.6049C194.904 57.6442 194.884 57.725 194.852 57.8304C194.826 57.9143 194.755 58.1336 194.622 58.4012L187.466 54.8234C187.228 55.3009 187.133 55.7371 187.118 55.806C187.079 55.9712 187.053 56.1249 187.034 56.2396C186.996 56.4745 186.963 56.7411 186.933 57.0107C186.872 57.56 186.805 58.3038 186.731 59.2201L194.706 59.858ZM191.044 52.6123H189.852V60.6123H191.044V52.6123ZM186.167 55.0564C184.822 58.2407 183.609 60.8331 182.528 62.8598L189.587 66.6245C190.819 64.3154 192.135 61.4878 193.537 58.1682L186.167 55.0564ZM182.555 62.8099C181.461 64.7936 179.998 67.2 178.151 70.0417L184.859 74.4016C186.769 71.4621 188.342 68.8822 189.56 66.6745L182.555 62.8099ZM178.185 69.9902L160.625 96.1142L167.264 100.577L184.825 74.4532L178.185 69.9902ZM163.944 102.346H190.068V94.3457H163.944V102.346Z" fill="#F0F2FF"/>
</svg>
