<svg width="65" height="64" viewBox="0 0 65 64" fill="none" xmlns="http://www.w3.org/2000/svg">
<rect width="65" height="64" fill="#F5F5F5"/>
<rect width="1920" height="5655" transform="translate(-1039 -4430)" fill="white"/>
<path d="M-1039 -138H881V764H-1039V-138Z" fill="#F7F8FF"/>
<path d="M-56.5 -25C-56.5 -41.5685 -43.0685 -55 -26.5 -55H592.5C609.068 -55 622.5 -41.5685 622.5 -25V267C622.5 283.569 609.068 297 592.5 297H-26.5C-43.0686 297 -56.5 283.569 -56.5 267V-25Z" fill="white"/>
<circle cx="32.5" cy="32" r="32" fill="url(#paint0_linear_0_1)"/>
<mask id="mask0_0_1" style="mask-type:alpha" maskUnits="userSpaceOnUse" x="0" y="0" width="65" height="64">
<circle cx="32.5" cy="32" r="32" fill="url(#paint1_linear_0_1)"/>
</mask>
<g mask="url(#mask0_0_1)">
</g>
<mask id="mask1_0_1" style="mask-type:alpha" maskUnits="userSpaceOnUse" x="14" y="11" width="36" height="36">
<rect x="14" y="11" width="36" height="36" fill="#D9D9D9"/>
</mask>
<g mask="url(#mask1_0_1)">
<path d="M32 45.5V42.5H42.5V41H36.5V29H42.5V27.5C42.5 24.6 41.475 22.125 39.425 20.075C37.375 18.025 34.9 17 32 17C29.1 17 26.625 18.025 24.575 20.075C22.525 22.125 21.5 24.6 21.5 27.5V29H27.5V41H21.5C20.675 41 19.9688 40.7063 19.3813 40.1188C18.7938 39.5312 18.5 38.825 18.5 38V27.5C18.5 25.65 18.8563 23.9062 19.5688 22.2688C20.2812 20.6313 21.25 19.2 22.475 17.975C23.7 16.75 25.1313 15.7812 26.7688 15.0688C28.4062 14.3563 30.15 14 32 14C33.85 14 35.5938 14.3563 37.2313 15.0688C38.8687 15.7812 40.3 16.75 41.525 17.975C42.75 19.2 43.7188 20.6313 44.4313 22.2688C45.1438 23.9062 45.5 25.65 45.5 27.5V42.5C45.5 43.325 45.2063 44.0312 44.6188 44.6188C44.0312 45.2063 43.325 45.5 42.5 45.5H32Z" fill="#F0F2FF"/>
</g>
<defs>
<linearGradient id="paint0_linear_0_1" x1="5.5" y1="6.5" x2="62.5" y2="65.5" gradientUnits="userSpaceOnUse">
<stop stop-color="#5860C2"/>
<stop offset="1" stop-color="#292F8D"/>
</linearGradient>
<linearGradient id="paint1_linear_0_1" x1="5.5" y1="6.5" x2="62.5" y2="65.5" gradientUnits="userSpaceOnUse">
<stop stop-color="#5860C2"/>
<stop offset="1" stop-color="#292F8D"/>
</linearGradient>
</defs>
</svg>
