<svg width="84" height="66" viewBox="0 0 84 66" fill="none" xmlns="http://www.w3.org/2000/svg">
<path opacity="0.3" d="M38.3621 37.1347C38.3621 41.0758 37.6232 44.7705 36.1453 48.219C34.6674 51.6674 32.6968 54.6232 30.2337 57.0863C27.6063 59.7137 24.5684 61.7663 21.12 63.2442C17.6716 64.7221 13.9768 65.4611 10.0358 65.4611H6.09474V49.4505H10.0358C13.32 49.4505 16.1937 48.3011 18.6568 46.0021C21.12 43.7032 22.3516 40.8295 22.3516 37.381C22.0232 37.5453 21.6126 37.6274 21.12 37.6274C20.4632 37.6274 19.8884 37.6274 19.3958 37.6274C14.141 37.6274 9.70737 35.8211 6.09474 32.2084C2.3179 28.5958 0.429474 24.08 0.429474 18.6611C0.429474 13.4063 2.3179 8.97263 6.09474 5.36C9.70737 1.91158 14.141 0.187367 19.3958 0.187367C24.6505 0.187367 29.1663 1.91158 32.9432 5.36C36.5558 8.97263 38.3621 13.4063 38.3621 18.6611V37.1347ZM83.6842 37.1347C83.6842 41.0758 82.9453 44.7705 81.4674 48.219C79.9895 51.6674 77.9368 54.6232 75.3095 57.0863C72.6821 59.7137 69.7263 61.7663 66.4421 63.2442C62.9937 64.7221 59.2989 65.4611 55.3579 65.4611H51.4168V49.4505H55.3579C58.6421 49.4505 61.5158 48.3011 63.9789 46.0021C66.4421 43.7032 67.7558 40.8295 67.92 37.381C67.2632 37.5453 66.1958 37.6274 64.7179 37.6274C59.4632 37.6274 55.0295 35.8211 51.4168 32.2084C47.64 28.5958 45.7516 24.08 45.7516 18.6611C45.7516 13.4063 47.64 8.97263 51.4168 5.36C55.0295 1.91158 59.4632 0.187367 64.7179 0.187367C69.9726 0.187367 74.4884 1.91158 78.2653 5.36C81.8779 8.97263 83.6842 13.4063 83.6842 18.6611V37.1347Z" fill="#6E6D84"/>
</svg>
