<svg width="64" height="64" viewBox="0 0 64 64" fill="none" xmlns="http://www.w3.org/2000/svg">
<rect width="64" height="64" fill="#F5F5F5"/>
<rect width="1920" height="5655" transform="translate(-1039 -4807)" fill="white"/>
<path d="M-1039 -515H881V387H-1039V-515Z" fill="#F7F8FF"/>
<path d="M-56 -21C-56 -37.5685 -42.5685 -51 -26 -51H593C609.568 -51 623 -37.5685 623 -21V271C623 287.569 609.568 301 593 301H-26C-42.5686 301 -56 287.569 -56 271V-21Z" fill="white"/>
<circle cx="32" cy="32" r="32" fill="url(#paint0_linear_0_1)"/>
<mask id="mask0_0_1" style="mask-type:alpha" maskUnits="userSpaceOnUse" x="17" y="15" width="36" height="36">
<rect x="17" y="15" width="36" height="36" fill="#D9D9D9"/>
</mask>
<g mask="url(#mask0_0_1)">
<path d="M27.5 40.5C27.925 40.5 28.2812 40.3563 28.5688 40.0688C28.8562 39.7812 29 39.425 29 39C29 38.575 28.8562 38.2188 28.5688 37.9313C28.2812 37.6438 27.925 37.5 27.5 37.5C27.075 37.5 26.7188 37.6438 26.4312 37.9313C26.1437 38.2188 26 38.575 26 39C26 39.425 26.1437 39.7812 26.4312 40.0688C26.7188 40.3563 27.075 40.5 27.5 40.5ZM26 34.5H29V25.5H26V34.5ZM33.5 40.5H44V37.5H33.5V40.5ZM33.5 34.5H44V31.5H33.5V34.5ZM33.5 28.5H44V25.5H33.5V28.5ZM23 46.5C22.175 46.5 21.4688 46.2063 20.8813 45.6188C20.2938 45.0312 20 44.325 20 43.5V22.5C20 21.675 20.2938 20.9688 20.8813 20.3813C21.4688 19.7938 22.175 19.5 23 19.5H47C47.825 19.5 48.5312 19.7938 49.1188 20.3813C49.7063 20.9688 50 21.675 50 22.5V43.5C50 44.325 49.7063 45.0312 49.1188 45.6188C48.5312 46.2063 47.825 46.5 47 46.5H23Z" fill="white"/>
</g>
<defs>
<linearGradient id="paint0_linear_0_1" x1="5" y1="6.5" x2="62" y2="65.5" gradientUnits="userSpaceOnUse">
<stop stop-color="#FF96C8"/>
<stop offset="1" stop-color="#CB4D6B"/>
</linearGradient>
</defs>
</svg>
