<svg width="90" height="90" viewBox="0 0 90 90" fill="none" xmlns="http://www.w3.org/2000/svg">
<g id="Group 427318364">
<ellipse id="Ellipse 1633" cx="44.8624" cy="45" rx="44.7936" ry="45" fill="#F7536E"/>
<g id="location_searching">
<mask id="mask0_17_362" style="mask-type:alpha" maskUnits="userSpaceOnUse" x="23" y="23" width="45" height="45">
<rect id="Bounding box" x="23" y="23" width="44.3411" height="44.5455" fill="#D9D9D9"/>
</mask>
<g mask="url(#mask0_17_362)">
<path id="location_searching_2" d="M43.9697 62.7199V59.8787C40.3054 59.5431 37.2498 58.1464 34.803 55.6883C32.3562 53.2302 30.9658 50.1605 30.6318 46.4793H27.8036C27.4634 46.4793 27.1782 46.3646 26.948 46.1351C26.7179 45.9057 26.6028 45.6213 26.6028 45.2821C26.6028 44.9429 26.7179 44.6555 26.948 44.4199C27.1782 44.1843 27.4634 44.0666 27.8036 44.0666H30.6318C30.9658 40.3854 32.3562 37.308 34.803 34.8344C37.2498 32.3609 40.3054 30.9718 43.9697 30.6672V27.826C43.9697 27.4842 44.0839 27.1977 44.3123 26.9665C44.5407 26.7352 44.8238 26.6196 45.1614 26.6196C45.4991 26.6196 45.7852 26.7352 46.0197 26.9665C46.2542 27.1977 46.3714 27.4842 46.3714 27.826V30.6672C50.0357 30.9718 53.0913 32.3609 55.5381 34.8344C57.9849 37.308 59.3753 40.3854 59.7092 44.0666H62.5374C62.8777 44.0666 63.1629 44.1813 63.393 44.4108C63.6232 44.6402 63.7383 44.9246 63.7383 45.2638C63.7383 45.603 63.6232 45.8904 63.393 46.126C63.1629 46.3616 62.8777 46.4793 62.5374 46.4793H59.7092C59.3753 50.1605 57.9849 53.2302 55.5381 55.6883C53.0913 58.1464 50.0357 59.5431 46.3714 59.8787V62.7199C46.3714 63.0617 46.2572 63.3482 46.0288 63.5794C45.8003 63.8106 45.5173 63.9263 45.1796 63.9263C44.842 63.9263 44.5559 63.8106 44.3214 63.5794C44.0869 63.3482 43.9697 63.0617 43.9697 62.7199ZM45.1705 57.5229C48.5577 57.5229 51.4368 56.332 53.8078 53.95C56.1788 51.5681 57.3643 48.6757 57.3643 45.2729C57.3643 41.8702 56.1788 38.9778 53.8078 36.5959C51.4368 34.2139 48.5577 33.0229 45.1705 33.0229C41.7834 33.0229 38.9043 34.2139 36.5333 36.5959C34.1622 38.9778 32.9767 41.8702 32.9767 45.2729C32.9767 48.6757 34.1622 51.5681 36.5333 53.95C38.9043 56.332 41.7834 57.5229 45.1705 57.5229Z" fill="#F0F2FF"/>
</g>
</g>
</g>
</svg>
