<svg width="1300" height="647" viewBox="0 0 1524 647" fill="none" xmlns="http://www.w3.org/2000/svg">
<rect opacity="0.1" x="0" width="1523" height="647" fill="url(#paint0_linear_176_6644)"/>
<path d="M849.925 589.306C851.09 587.359 853.91 587.359 855.075 589.306L862.343 601.46C863.539 603.46 862.098 606 859.768 606H845.232C842.902 606 841.461 603.46 842.657 601.46L849.925 589.306Z" fill="#3BAACF" fill-opacity="0.4"/>
<path d="M270.392 588.883C268.879 587.129 269.904 584.388 272.221 583.991L276.573 583.244C278.854 582.853 280.683 585.033 279.878 587.185L278.367 591.225C277.562 593.377 274.721 593.904 273.232 592.177L270.392 588.883Z" fill="#F2055C" fill-opacity="0.7"/>
<circle cx="280.5" cy="63.5" r="7" stroke="#F2055C" stroke-opacity="0.8" stroke-width="3"/>
<circle cx="1418.5" cy="506.5" r="7" stroke="#F2055C" stroke-opacity="0.8" stroke-width="3"/>
<mask id="mask0_176_6644" style="mask-type:alpha" maskUnits="userSpaceOnUse" x="1372" y="206" width="152" height="267">
<rect x="1372" y="206" width="152" height="267" fill="#D9D9D9"/>
</mask>
<g mask="url(#mask0_176_6644)">
<mask id="path-7-inside-1_176_6644" fill="white">
<path d="M1568.65 333.629C1564.74 347.412 1557.55 360.041 1547.69 370.43C1537.82 380.82 1525.58 388.66 1512.02 393.278C1498.46 397.895 1483.98 399.151 1469.83 396.938C1455.68 394.725 1442.27 389.109 1430.77 380.573C1419.26 372.036 1410 360.835 1403.78 347.93C1397.56 335.026 1394.56 320.804 1395.05 306.487C1395.54 292.169 1399.5 278.184 1406.58 265.733C1413.66 253.282 1423.67 242.737 1435.72 235.003L1457.93 269.628C1451.48 273.767 1446.12 279.411 1442.33 286.075C1438.54 292.739 1436.42 300.224 1436.16 307.887C1435.9 315.55 1437.5 323.162 1440.83 330.069C1444.16 336.975 1449.12 342.971 1455.28 347.54C1461.43 352.108 1468.61 355.114 1476.18 356.298C1483.76 357.483 1491.51 356.811 1498.77 354.339C1506.02 351.868 1512.57 347.672 1517.85 342.111C1523.13 336.55 1526.98 329.791 1529.07 322.414L1568.65 333.629Z"/>
</mask>
<path d="M1568.65 333.629C1564.74 347.412 1557.55 360.041 1547.69 370.43C1537.82 380.82 1525.58 388.66 1512.02 393.278C1498.46 397.895 1483.98 399.151 1469.83 396.938C1455.68 394.725 1442.27 389.109 1430.77 380.573C1419.26 372.036 1410 360.835 1403.78 347.93C1397.56 335.026 1394.56 320.804 1395.05 306.487C1395.54 292.169 1399.5 278.184 1406.58 265.733C1413.66 253.282 1423.67 242.737 1435.72 235.003L1457.93 269.628C1451.48 273.767 1446.12 279.411 1442.33 286.075C1438.54 292.739 1436.42 300.224 1436.16 307.887C1435.9 315.55 1437.5 323.162 1440.83 330.069C1444.16 336.975 1449.12 342.971 1455.28 347.54C1461.43 352.108 1468.61 355.114 1476.18 356.298C1483.76 357.483 1491.51 356.811 1498.77 354.339C1506.02 351.868 1512.57 347.672 1517.85 342.111C1523.13 336.55 1526.98 329.791 1529.07 322.414L1568.65 333.629Z" stroke="url(#paint1_linear_176_6644)" stroke-opacity="0.7" stroke-width="86" mask="url(#path-7-inside-1_176_6644)"/>
</g>
<mask id="mask1_176_6644" style="mask-type:alpha" maskUnits="userSpaceOnUse" x="0" y="28" width="270" height="308">
<rect y="108.755" width="152" height="267" transform="rotate(-31.8363 0 108.755)" fill="#D9D9D9"/>
</mask>
<g mask="url(#mask1_176_6644)">
<mask id="path-9-inside-2_176_6644" fill="white">
<path d="M234.387 113.453C238.339 127.223 238.889 141.746 235.991 155.776C233.092 169.805 226.831 182.921 217.746 193.997C208.66 205.073 197.022 213.778 183.83 219.364C170.638 224.95 156.287 227.25 142.011 226.067C127.734 224.883 113.958 220.252 101.866 212.57C89.7739 204.888 79.7274 194.386 72.5895 181.965C65.4515 169.545 61.4355 155.577 60.8864 141.262C60.3372 126.946 63.2714 112.712 69.4369 99.7808L106.566 117.483C103.266 124.404 101.695 132.023 101.989 139.685C102.283 147.347 104.432 154.823 108.253 161.47C112.073 168.118 117.45 173.739 123.922 177.851C130.394 181.962 137.767 184.441 145.409 185.074C153.05 185.708 160.73 184.477 167.791 181.487C174.852 178.497 181.081 173.838 185.943 167.91C190.806 161.982 194.157 154.962 195.709 147.453C197.26 139.944 196.965 132.171 194.85 124.801L234.387 113.453Z"/>
</mask>
<path d="M234.387 113.453C238.339 127.223 238.889 141.746 235.991 155.776C233.092 169.805 226.831 182.921 217.746 193.997C208.66 205.073 197.022 213.778 183.83 219.364C170.638 224.95 156.287 227.25 142.011 226.067C127.734 224.883 113.958 220.252 101.866 212.57C89.7739 204.888 79.7274 194.386 72.5895 181.965C65.4515 169.545 61.4355 155.577 60.8864 141.262C60.3372 126.946 63.2714 112.712 69.4369 99.7808L106.566 117.483C103.266 124.404 101.695 132.023 101.989 139.685C102.283 147.347 104.432 154.823 108.253 161.47C112.073 168.118 117.45 173.739 123.922 177.851C130.394 181.962 137.767 184.441 145.409 185.074C153.05 185.708 160.73 184.477 167.791 181.487C174.852 178.497 181.081 173.838 185.943 167.91C190.806 161.982 194.157 154.962 195.709 147.453C197.26 139.944 196.965 132.171 194.85 124.801L234.387 113.453Z" stroke="url(#paint2_linear_176_6644)" stroke-opacity="0.7" stroke-width="86" mask="url(#path-9-inside-2_176_6644)"/>
</g>
<defs>
<linearGradient id="paint0_linear_176_6644" x1="1524" y1="291.5" x2="11" y2="291.5" gradientUnits="userSpaceOnUse">
<stop offset="0.100949" stop-color="#33ADF4"/>
<stop offset="1" stop-color="#66DED0"/>
</linearGradient>
<linearGradient id="paint1_linear_176_6644" x1="1483.5" y1="221" x2="1483.5" y2="398" gradientUnits="userSpaceOnUse">
<stop stop-color="#3BAACF" stop-opacity="0.4"/>
<stop offset="1" stop-color="#F2055C" stop-opacity="0"/>
</linearGradient>
<linearGradient id="paint2_linear_176_6644" x1="102.638" y1="62.6833" x2="196.005" y2="213.055" gradientUnits="userSpaceOnUse">
<stop stop-color="#3BAACF" stop-opacity="0.4"/>
<stop offset="1" stop-color="#F2055C" stop-opacity="0"/>
</linearGradient>
</defs>
</svg>
