<svg width="64" height="64" viewBox="0 0 64 64" fill="none" xmlns="http://www.w3.org/2000/svg">
<mask id="mask0_180_290" style="mask-type:alpha" maskUnits="userSpaceOnUse" x="0" y="0" width="64" height="64">
<rect width="64" height="64" fill="#D9D9D9"/>
</mask>
<g mask="url(#mask0_180_290)">
<path d="M44.4666 56L43.7999 51.6C43.0444 51.3777 42.2777 51.0555 41.4999 50.6333C40.7221 50.2111 40.0666 49.7333 39.5333 49.2L35.8666 50L34.1999 47.2L37.3333 44.2666C37.2444 43.8666 37.1999 43.3111 37.1999 42.6C37.1999 41.8888 37.2444 41.3333 37.3333 40.9333L34.1999 38L35.8666 35.2L39.5333 36C40.0666 35.4666 40.7221 34.9888 41.4999 34.5666C42.2777 34.1444 43.0444 33.8222 43.7999 33.6L44.4666 29.2H48.0666L48.7333 33.6C49.4888 33.8222 50.2555 34.1444 51.0333 34.5666C51.811 34.9888 52.4666 35.4666 52.9999 36L56.6666 35.2L58.3333 38L55.1999 40.9333C55.2888 41.3333 55.3333 41.8888 55.3333 42.6C55.3333 43.3111 55.2888 43.8666 55.1999 44.2666L58.3333 47.2L56.6666 50L52.9999 49.2C52.4666 49.7333 51.811 50.2111 51.0333 50.6333C50.2555 51.0555 49.4888 51.3777 48.7333 51.6L48.0666 56H44.4666ZM5.33325 53.0666V46.8C5.33325 45.2444 5.72214 43.8444 6.49992 42.6C7.2777 41.3555 8.39992 40.4 9.86659 39.7333C13.0666 38.3111 16.0333 37.2888 18.7666 36.6666C21.4999 36.0444 24.1333 35.7333 26.6666 35.7333H28.1999C27.2666 38 26.8444 40.9888 26.9333 44.7C27.0221 48.4111 27.7777 51.2 29.1999 53.0666H5.33325ZM46.2666 47.9333C47.8666 47.9333 49.1555 47.4444 50.1333 46.4666C51.111 45.4888 51.5999 44.2 51.5999 42.6C51.5999 41 51.111 39.7111 50.1333 38.7333C49.1555 37.7555 47.8666 37.2666 46.2666 37.2666C44.6666 37.2666 43.3777 37.7555 42.3999 38.7333C41.4221 39.7111 40.9333 41 40.9333 42.6C40.9333 44.2 41.4221 45.4888 42.3999 46.4666C43.3777 47.4444 44.6666 47.9333 46.2666 47.9333ZM26.6666 31.6666C23.7333 31.6666 21.3333 30.7333 19.4666 28.8666C17.5999 27 16.6666 24.6 16.6666 21.6666C16.6666 18.7333 17.5999 16.3333 19.4666 14.4666C21.3333 12.6 23.7333 11.6666 26.6666 11.6666C29.5999 11.6666 31.9999 12.6 33.8666 14.4666C35.7333 16.3333 36.6666 18.7333 36.6666 21.6666C36.6666 24.6 35.7333 27 33.8666 28.8666C31.9999 30.7333 29.5999 31.6666 26.6666 31.6666Z" fill="#F7536E"/>
</g>
</svg>
