<svg width="64" height="64" viewBox="0 0 64 64" fill="none" xmlns="http://www.w3.org/2000/svg">
<mask id="mask0_180_278" style="mask-type:alpha" maskUnits="userSpaceOnUse" x="0" y="0" width="64" height="64">
<rect width="64" height="64" fill="#D9D9D9"/>
</mask>
<g mask="url(#mask0_180_278)">
<path d="M51.1074 23.0666C48.6359 23.0666 46.4779 22.2888 44.6334 20.7333C42.789 19.1777 41.6223 17.2222 41.1334 14.8666H22.8001C22.4001 16.8666 21.4779 18.5888 20.0334 20.0333C18.589 21.4777 16.8667 22.4 14.8667 22.8V41.1333C17.2223 41.6222 19.1779 42.7867 20.7334 44.6269C22.289 46.4671 23.0667 48.6359 23.0667 51.1333C23.0667 53.9777 22.068 56.3889 20.0705 58.3666C18.073 60.3444 15.6717 61.3333 12.8667 61.3333C10.0223 61.3333 7.61119 60.3444 5.63341 58.3666C3.65564 56.3889 2.66675 53.9691 2.66675 51.1073C2.66675 48.6357 3.44453 46.4777 5.00008 44.6333C6.55564 42.7888 8.51119 41.6222 10.8667 41.1333V22.8C8.51119 22.3111 6.55564 21.1555 5.00008 19.3333C3.44453 17.5111 2.66675 15.3333 2.66675 12.8C2.66675 10.0133 3.65897 7.62774 5.64341 5.64329C7.62786 3.65885 10.0134 2.66663 12.8001 2.66663C15.3334 2.66663 17.5112 3.4444 19.3334 4.99996C21.1556 6.55552 22.3112 8.51107 22.8001 10.8666H41.1334C41.6223 8.51107 42.7868 6.55552 44.627 4.99996C46.4672 3.4444 48.636 2.66663 51.1334 2.66663C53.9779 2.66663 56.389 3.65552 58.3668 5.63329C60.3445 7.61107 61.3334 10.0111 61.3334 12.8333C61.3334 15.6555 60.3445 18.0666 58.3668 20.0666C56.389 22.0666 53.9692 23.0666 51.1074 23.0666ZM51.2001 61.3333C48.3768 61.3333 45.9598 60.3411 43.9492 58.3566C41.9387 56.3722 40.9334 53.9866 40.9334 51.2C40.9334 48.3766 41.9363 45.9597 43.9419 43.9491C45.9477 41.9386 48.3588 40.9333 51.1753 40.9333C53.9918 40.9333 56.389 41.9361 58.3668 43.9418C60.3445 45.9476 61.3334 48.3587 61.3334 51.1752C61.3334 53.9917 60.3412 56.3889 58.3567 58.3666C56.3723 60.3444 53.9868 61.3333 51.2001 61.3333ZM51.2001 19.0666C52.8868 19.0666 54.3306 18.453 55.5318 17.2258C56.7329 15.9986 57.3334 14.5233 57.3334 12.8C57.3334 11.1133 56.7329 9.66941 55.5318 8.46829C54.3306 7.26718 52.8868 6.66663 51.2001 6.66663C49.4768 6.66663 48.0015 7.26718 46.7742 8.46829C45.547 9.66941 44.9334 11.1133 44.9334 12.8C44.9334 14.5233 45.547 15.9986 46.7742 17.2258C48.0015 18.453 49.4768 19.0666 51.2001 19.0666ZM51.2001 57.3333C52.8868 57.3333 54.3306 56.7327 55.5318 55.5316C56.7329 54.3305 57.3334 52.8866 57.3334 51.2C57.3334 49.4766 56.7329 48.0013 55.5318 46.7741C54.3306 45.5469 52.8868 44.9333 51.2001 44.9333C49.4668 44.9333 47.989 45.5469 46.7668 46.7741C45.5445 48.0013 44.9334 49.4766 44.9334 51.2C44.9334 52.8866 45.5445 54.3305 46.7668 55.5316C47.989 56.7327 49.4668 57.3333 51.2001 57.3333ZM12.8001 19.0666C14.5234 19.0666 15.9987 18.4555 17.2259 17.2333C18.4531 16.0111 19.0667 14.5333 19.0667 12.8C19.0667 11.1133 18.4531 9.66941 17.2259 8.46829C15.9987 7.26718 14.5234 6.66663 12.8001 6.66663C11.1134 6.66663 9.66953 7.26718 8.46842 8.46829C7.2673 9.66941 6.66675 11.1133 6.66675 12.8C6.66675 14.5333 7.2673 16.0111 8.46842 17.2333C9.66953 18.4555 11.1134 19.0666 12.8001 19.0666ZM12.781 57.3333C14.5096 57.3333 15.9894 56.7333 17.2203 55.5333C18.4513 54.3333 19.0667 52.8952 19.0667 51.219C19.0667 49.4905 18.4513 48.0107 17.2203 46.7797C15.9894 45.5488 14.5096 44.9333 12.781 44.9333C11.1048 44.9333 9.66675 45.5488 8.46675 46.7797C7.26675 48.0107 6.66675 49.4905 6.66675 51.219C6.66675 52.8952 7.26675 54.3333 8.46675 55.5333C9.66675 56.7333 11.1048 57.3333 12.781 57.3333ZM51.2001 19.0666C49.4668 19.0666 47.989 18.4555 46.7668 17.2333C45.5445 16.0111 44.9334 14.5333 44.9334 12.8C44.9334 11.1111 45.5445 9.66663 46.7668 8.46663C47.989 7.26663 49.4668 6.66663 51.2001 6.66663C52.889 6.66663 54.3334 7.26663 55.5334 8.46663C56.7334 9.66663 57.3334 11.1111 57.3334 12.8C57.3334 14.5333 56.7334 16.0111 55.5334 17.2333C54.3334 18.4555 52.889 19.0666 51.2001 19.0666ZM51.2001 57.3333C49.4668 57.3333 47.989 56.7333 46.7668 55.5333C45.5445 54.3333 44.9334 52.8889 44.9334 51.2C44.9334 49.4666 45.5445 47.9889 46.7668 46.7666C47.989 45.5444 49.4668 44.9333 51.2001 44.9333C52.889 44.9333 54.3334 45.5444 55.5334 46.7666C56.7334 47.9889 57.3334 49.4666 57.3334 51.2C57.3334 52.8889 56.7334 54.3333 55.5334 55.5333C54.3334 56.7333 52.889 57.3333 51.2001 57.3333ZM12.8001 19.0666C11.1112 19.0666 9.66675 18.4555 8.46675 17.2333C7.26675 16.0111 6.66675 14.5333 6.66675 12.8C6.66675 11.1111 7.26675 9.66663 8.46675 8.46663C9.66675 7.26663 11.1112 6.66663 12.8001 6.66663C14.5334 6.66663 16.0112 7.26663 17.2334 8.46663C18.4556 9.66663 19.0667 11.1111 19.0667 12.8C19.0667 14.5333 18.4556 16.0111 17.2334 17.2333C16.0112 18.4555 14.5334 19.0666 12.8001 19.0666ZM12.8001 57.3333C11.1112 57.3333 9.66675 56.7333 8.46675 55.5333C7.26675 54.3333 6.66675 52.8889 6.66675 51.2C6.66675 49.4666 7.26675 47.9889 8.46675 46.7666C9.66675 45.5444 11.1112 44.9333 12.8001 44.9333C14.5334 44.9333 16.0112 45.5444 17.2334 46.7666C18.4556 47.9889 19.0667 49.4666 19.0667 51.2C19.0667 52.8889 18.4556 54.3333 17.2334 55.5333C16.0112 56.7333 14.5334 57.3333 12.8001 57.3333Z" fill="#F7536E"/>
</g>
</svg>
