<svg width="64" height="64" viewBox="0 0 64 64" fill="none" xmlns="http://www.w3.org/2000/svg">
<mask id="mask0_180_230" style="mask-type:alpha" maskUnits="userSpaceOnUse" x="0" y="0" width="64" height="64">
<rect width="64" height="64" fill="#D9D9D9"/>
</mask>
<g mask="url(#mask0_180_230)">
<path d="M5.33325 56V52H29.9999V19.7334C28.8444 19.3334 27.811 18.6778 26.8999 17.7667C25.9888 16.8556 25.3333 15.8223 24.9333 14.6667H14.3333L22.6666 34.8C22.6221 36.8 21.7666 38.5 20.0999 39.9C18.4333 41.3 16.3999 42 13.9999 42C11.5999 42 9.56659 41.3 7.89992 39.9C6.23325 38.5 5.3777 36.8 5.33325 34.8L13.6666 14.6667H7.99992V10.6667H24.9333C25.4666 9.11115 26.3777 7.83337 27.6666 6.83337C28.9555 5.83337 30.3999 5.33337 31.9999 5.33337C33.5999 5.33337 35.0444 5.83337 36.3333 6.83337C37.6221 7.83337 38.5333 9.11115 39.0666 10.6667H55.9999V14.6667H50.3332L58.6666 34.8C58.6221 36.8 57.7666 38.5 56.0999 39.9C54.4333 41.3 52.3999 42 49.9999 42C47.5999 42 45.5666 41.3 43.8999 39.9C42.2333 38.5 41.3777 36.8 41.3332 34.8L49.6666 14.6667H39.0666C38.6666 15.8223 38.011 16.8556 37.0999 17.7667C36.1888 18.6778 35.1555 19.3334 33.9999 19.7334V52H58.6666V56H5.33325ZM44.9999 34.6667H54.9999L49.9999 22.4L44.9999 34.6667ZM8.99992 34.6667H18.9999L13.9999 22.4L8.99992 34.6667ZM31.9999 16C32.9333 16 33.7221 15.6667 34.3666 15C35.011 14.3334 35.3333 13.5556 35.3333 12.6667C35.3333 11.7334 35.011 10.9445 34.3666 10.3C33.7221 9.6556 32.9333 9.33337 31.9999 9.33337C31.111 9.33337 30.3333 9.6556 29.6666 10.3C28.9999 10.9445 28.6666 11.7334 28.6666 12.6667C28.6666 13.5556 28.9999 14.3334 29.6666 15C30.3333 15.6667 31.111 16 31.9999 16Z" fill="#F7536E"/>
</g>
</svg>
